<?xml version="1.0" encoding="utf-8"?>
<!-- Generator: Adobe Illustrator 18.0.0, SVG Export Plug-In . SVG Version: 6.00 Build 0)  -->
<!DOCTYPE svg PUBLIC "-//W3C//DTD SVG 1.1//EN" "http://www.w3.org/Graphics/SVG/1.1/DTD/svg11.dtd">
<svg version="1.1" id="Layer_1" xmlns="http://www.w3.org/2000/svg" xmlns:xlink="http://www.w3.org/1999/xlink" x="0px" y="0px"
	 width="800px" height="600px" viewBox="0 0 800 600" enable-background="new 0 0 800 600" xml:space="preserve">
<g>
	<rect y="0" fill="#F7ACB3" width="800" height="600"/>
	<g>
		<defs>
			<rect id="SVGID_9_" y="0" width="800" height="600"/>
		</defs>
		<clipPath id="SVGID_2_">
			<use xlink:href="#SVGID_9_"  overflow="visible"/>
		</clipPath>
		<g clip-path="url(#SVGID_2_)">
			<g>
				<g>
					
						<linearGradient id="SVGID_3_" gradientUnits="userSpaceOnUse" x1="-174.8412" y1="156.737" x2="-130.8412" y2="-135.263" gradientTransform="matrix(-0.5644 0.8255 0.8255 0.5644 280.0957 328.2341)">
						<stop  offset="0" style="stop-color:#BECC91"/>
						<stop  offset="1" style="stop-color:#6BA47D"/>
					</linearGradient>
					<path fill="url(#SVGID_3_)" d="M622.3,277.9c32.9,20.7,61.4,39.6,85.4,56.3c1,3,3,11,1,20.9c-2.6,12.6-50.2,36.5-77.8,26
						c-11.7-4.5-44.3-29.2-81.2-59.1L622.3,277.9z"/>
					
						<linearGradient id="SVGID_4_" gradientUnits="userSpaceOnUse" x1="-193.275" y1="153.9593" x2="-149.275" y2="-138.0407" gradientTransform="matrix(-0.5644 0.8255 0.8255 0.5644 280.0957 328.2341)">
						<stop  offset="0" style="stop-color:#BECC91"/>
						<stop  offset="1" style="stop-color:#6BA47D"/>
					</linearGradient>
					<path fill="url(#SVGID_4_)" d="M542.3,316c-48.2-39.2-101.8-85.1-125.8-105.5c-44.1-37.3-73.3-71.7-50-72.6
						c0,0-1.2-1.5-2.3-3.8c105,52.1,190.8,101.5,258,143.7L542.3,316z"/>
				</g>
				
					<linearGradient id="SVGID_5_" gradientUnits="userSpaceOnUse" x1="295.2715" y1="109.7177" x2="255.2716" y2="-180.2823" gradientTransform="matrix(-0.6007 0.7995 0.7995 0.6007 677.9749 -57.9306)">
					<stop  offset="0" style="stop-color:#6BA47D"/>
					<stop  offset="1" style="stop-color:#447862"/>
				</linearGradient>
				<path fill="url(#SVGID_5_)" d="M364.1,134.2c-1.8-3.5-3.5-8.8-0.8-12.8c1.7-2.4,12.5-2.7,29.2-0.7l12.6,34l-5.4-33.1
					c25.2,3.6,60.9,11.4,98.9,23.7c1.1,8.3,3,17.8,6.2,24c6.7,12.9,18.2,48.5,18.2,48.5l6.2,3.5c0,0-4.9-27.3-13.3-50.2
					c-3.1-8.4-5.1-16-6.4-22.2c0.8,0.3,1.6,0.5,2.4,0.8c74.7,25.9,178.5,77.6,194.7,99.5c16.2,21.9,30.1,77.6,0.6,83.6
					c0,0,0.2,0.5,0.5,1.3C634.7,283.6,520.6,211.8,364.1,134.2z"/>
				<path fill="#FFFFFF" d="M807.7,407.2c0,0-1.5-1.4-4.4-3.9c-1.5-1.3-3.3-2.8-5.4-4.6c-2.1-1.8-4.6-3.8-7.4-6.1
					c-2.8-2.2-5.9-4.7-9.2-7.4c-3.4-2.6-7.1-5.5-11-8.5c-3.9-3.1-8.2-6.2-12.6-9.6c-4.5-3.3-9.1-6.9-14.1-10.5
					c-5-3.6-10.1-7.3-15.5-11.2c-5.4-3.8-11-7.7-16.7-11.7c-2.9-2-5.8-4-8.7-6.1c-2.9-2.1-6-4-9.1-6.1c-6.1-4.1-12.4-8.3-18.7-12.5
					c-6.4-4.2-12.9-8.4-19.5-12.7c-3.3-2.1-6.6-4.3-10-6.4c-3.3-2.2-6.7-4.3-10.1-6.4c-6.8-4.2-13.7-8.5-20.6-12.8
					c-3.5-2.1-6.9-4.3-10.4-6.4c-3.5-2.1-7-4.2-10.5-6.3c-7-4.2-14-8.3-21-12.5c-3.5-2.1-7-4.1-10.5-6.2c-3.5-2-7-4-10.5-6
					c-7-4-13.9-7.9-20.7-11.8c-3.4-1.9-6.8-3.9-10.2-5.8c-3.4-1.9-6.8-3.7-10.1-5.6c-13.4-7.3-26.4-14.4-38.7-21.1
					c-12.4-6.5-24.2-12.6-35-18.3c-5.4-2.8-10.6-5.5-15.6-8.1c-5-2.6-9.7-4.9-14.1-7.1c-8.9-4.4-16.6-8.3-23-11.5
					c-12.8-6.4-20.1-10-20.1-10s7.3,3.7,20,10.2c6.4,3.2,14.1,7.2,22.9,11.7c4.4,2.3,9.2,4.6,14.1,7.2c4.9,2.6,10.1,5.4,15.5,8.2
					c10.8,5.7,22.5,12,34.9,18.5c12.2,6.8,25.2,14,38.5,21.4c3.3,1.9,6.7,3.7,10.1,5.6c3.4,1.9,6.7,3.9,10.1,5.9
					c6.8,3.9,13.7,7.9,20.6,12c3.5,2,7,4,10.4,6.1c3.5,2.1,6.9,4.2,10.4,6.3c6.9,4.2,13.9,8.4,20.9,12.6c3.5,2.1,7,4.2,10.4,6.3
					c3.4,2.2,6.9,4.3,10.3,6.5c6.9,4.3,13.7,8.6,20.5,12.9c3.4,2.1,6.7,4.3,10.1,6.5c3.3,2.2,6.6,4.3,9.9,6.5
					c6.6,4.3,13.1,8.5,19.4,12.8c6.3,4.3,12.5,8.5,18.6,12.7c3,2.1,6.1,4.1,9,6.2c2.9,2.1,5.8,4.1,8.7,6.1
					c5.7,4.1,11.3,7.9,16.6,11.8c5.3,3.9,10.4,7.7,15.4,11.3c5,3.6,9.6,7.2,14,10.5c4.4,3.4,8.7,6.5,12.5,9.6
					c3.9,3.1,7.5,5.9,10.9,8.6c3.3,2.7,6.4,5.2,9.1,7.4c2.8,2.2,5.2,4.3,7.3,6.1c2.1,1.8,3.9,3.3,5.3,4.6c2.9,2.5,4.4,3.9,4.4,3.9
					L807.7,407.2z"/>
			</g>
			<g>
				<g>
					
						<linearGradient id="SVGID_6_" gradientUnits="userSpaceOnUse" x1="-844.3253" y1="1088.1069" x2="-800.3253" y2="796.1069" gradientTransform="matrix(0.3109 0.9504 -0.9504 0.3109 1711.7582 862.3563)">
						<stop  offset="0" style="stop-color:#BECC91"/>
						<stop  offset="1" style="stop-color:#6BA47D"/>
					</linearGradient>
					<path fill="url(#SVGID_6_)" d="M304,371.6c-37.4,10.6-70.1,20.9-97.8,30.1c-1.8,2.6-6,9.7-6.8,19.8
						c-1,12.8,37.9,49.1,67.4,46.7c12.5-1,50.7-15.6,94.5-34L304,371.6z"/>
					
						<linearGradient id="SVGID_7_" gradientUnits="userSpaceOnUse" x1="-862.7591" y1="1085.3292" x2="-818.7591" y2="793.3292" gradientTransform="matrix(0.3109 0.9504 -0.9504 0.3109 1711.7582 862.3563)">
						<stop  offset="0" style="stop-color:#BECC91"/>
						<stop  offset="1" style="stop-color:#6BA47D"/>
					</linearGradient>
					<path fill="url(#SVGID_7_)" d="M370.1,430.6c57.2-24.1,121.5-53.3,150.3-66.1c52.8-23.5,90.5-48.4,68.3-55.7c0,0,1.5-1.1,3.3-3
						c-115.4,20.7-211.6,44.1-287.9,65.8L370.1,430.6z"/>
				</g>
				
					<linearGradient id="SVGID_8_" gradientUnits="userSpaceOnUse" x1="-415.1553" y1="1010.2468" x2="-455.1553" y2="720.2468" gradientTransform="matrix(0.3531 0.9356 -0.9356 0.3531 1437.7891 380.3065)">
					<stop  offset="0" style="stop-color:#6BA47D"/>
					<stop  offset="1" style="stop-color:#447862"/>
				</linearGradient>
				<path fill="url(#SVGID_8_)" d="M592,305.8c2.7-2.9,5.8-7.4,4.3-12c-0.9-2.8-11.2-6.1-27.8-8.9L546.9,314l14.4-30.2
					c-25.2-3.6-61.6-6-101.6-4.9c-3.4,7.6-7.8,16.2-12.6,21.3c-10.1,10.5-31,41.5-31,41.5l-7,1.6c0,0,12.4-24.8,26.8-44.4
					c5.3-7.2,9.4-14,12.3-19.5c-0.8,0-1.7,0.1-2.5,0.1c-79,3.9-193.1,24.6-214.8,41.1c-21.7,16.5-50.6,66.1-24,80.1
					c0,0-0.3,0.4-0.8,1.1C290.5,373.5,420,336.6,592,305.8z"/>
				<path fill="#FFFFFF" d="M89.7,443.9c0,0,1.8-0.9,5.3-2.5c1.8-0.8,3.9-1.8,6.5-2.9c2.6-1.1,5.5-2.4,8.8-3.8
					c3.3-1.4,7-2.9,10.9-4.5c4-1.6,8.3-3.3,13-5.1c4.6-1.9,9.6-3.7,14.8-5.6c5.2-1.9,10.7-4.1,16.5-6.1c5.8-2.1,11.8-4.2,18-6.4
					c6.2-2.2,12.7-4.3,19.4-6.6c3.3-1.1,6.7-2.3,10.1-3.4c3.4-1.2,6.9-2.2,10.4-3.3c7-2.2,14.2-4.5,21.5-6.8
					c7.3-2.3,14.8-4.4,22.3-6.7c3.8-1.1,7.6-2.3,11.4-3.4c3.8-1.1,7.6-2.3,11.5-3.3c7.7-2.1,15.5-4.3,23.4-6.5
					c3.9-1.1,7.8-2.2,11.8-3.3c3.9-1.1,7.9-2.1,11.8-3.1c7.9-2,15.8-4.1,23.7-6.1c3.9-1,7.9-2,11.8-3c3.9-0.9,7.9-1.9,11.8-2.8
					c7.8-1.9,15.6-3.7,23.2-5.5c3.8-0.9,7.6-1.8,11.4-2.7c3.8-0.9,7.6-1.7,11.3-2.5c14.9-3.3,29.4-6.5,43.1-9.5
					c13.7-2.8,26.7-5.4,38.7-7.8c6-1.2,11.7-2.4,17.2-3.4c5.5-1.1,10.7-2,15.6-2.9c9.8-1.8,18.3-3.3,25.3-4.6c14-2.5,22.1-4,22.1-4
					s-8,1.5-22,4.2c-7,1.3-15.5,2.9-25.3,4.8c-4.9,0.9-10.1,1.9-15.5,3c-5.5,1.1-11.2,2.3-17.2,3.6c-12,2.5-24.9,5.2-38.7,8.1
					c-13.7,3.1-28.1,6.4-43,9.8c-3.7,0.9-7.5,1.7-11.3,2.6c-3.8,0.9-7.6,1.9-11.4,2.8c-7.6,1.9-15.4,3.8-23.2,5.7
					c-3.9,1-7.8,1.9-11.7,2.9c-3.9,1-7.8,2.1-11.7,3.1c-7.8,2.1-15.7,4.2-23.6,6.3c-3.9,1.1-7.9,2.1-11.8,3.2
					c-3.9,1.1-7.8,2.2-11.7,3.4c-7.8,2.2-15.6,4.5-23.3,6.7c-3.9,1.1-7.7,2.2-11.5,3.4c-3.8,1.2-7.6,2.3-11.3,3.5
					c-7.5,2.3-15,4.5-22.2,6.9c-7.3,2.4-14.4,4.7-21.4,7c-3.5,1.2-7,2.2-10.4,3.4c-3.4,1.2-6.7,2.3-10.1,3.5
					c-6.6,2.3-13.1,4.5-19.3,6.7c-6.2,2.3-12.2,4.4-17.9,6.5c-5.8,2-11.2,4.2-16.4,6.2c-5.2,2-10.1,3.8-14.7,5.7
					c-4.6,1.9-8.9,3.6-12.9,5.2c-4,1.7-7.6,3.2-10.9,4.6c-3.3,1.4-6.2,2.7-8.7,3.8c-2.5,1.1-4.7,2.1-6.4,2.9
					c-3.4,1.6-5.3,2.5-5.3,2.5L89.7,443.9z"/>
			</g>
			<g>
				<g>
					
						<linearGradient id="SVGID_10_" gradientUnits="userSpaceOnUse" x1="-1223.5867" y1="1574.0806" x2="-1179.5867" y2="1282.0806" gradientTransform="matrix(-0.9864 0.1644 -0.1644 -0.9864 -888.4702 1975.6948)">
						<stop  offset="0" style="stop-color:#BECC91"/>
						<stop  offset="1" style="stop-color:#6BA47D"/>
					</linearGradient>
					<path fill="url(#SVGID_10_)" d="M102.8,116.1C97.9,77.5,92.7,43.7,87.7,14.9c-2.3-2.1-8.7-7.4-18.6-9.7
						C56.6,2.3,14.9,35.3,12.8,64.8c-0.9,12.5,7.8,52.5,19.4,98.5L102.8,116.1z"/>
					
						<linearGradient id="SVGID_11_" gradientUnits="userSpaceOnUse" x1="-1242.0205" y1="1571.303" x2="-1198.0205" y2="1279.303" gradientTransform="matrix(-0.9864 0.1644 -0.1644 -0.9864 -888.4702 1975.6948)">
						<stop  offset="0" style="stop-color:#BECC91"/>
						<stop  offset="1" style="stop-color:#6BA47D"/>
					</linearGradient>
					<path fill="url(#SVGID_11_)" d="M34.5,172.6c15.3,60.2,34.4,128.1,42.8,158.6c15.3,55.7,34.2,96.7,44.8,75.9
						c0,0,0.9,1.7,2.5,3.7c-3.1-117.2-11.8-215.8-21.7-294.5L34.5,172.6z"/>
				</g>
				
					<linearGradient id="SVGID_12_" gradientUnits="userSpaceOnUse" x1="-815.7501" y1="1478.7908" x2="-855.7501" y2="1188.7908" gradientTransform="matrix(-0.9781 0.2083 -0.2083 -0.9781 -370.6837 1777.3815)">
					<stop  offset="0" style="stop-color:#6BA47D"/>
					<stop  offset="1" style="stop-color:#447862"/>
				</linearGradient>
				<path fill="url(#SVGID_12_)" d="M124.5,410.7c2.4,3.1,6.5,6.9,11.2,6.1c2.9-0.5,7.7-10.2,13-26.2l-25.5-25.8l27.7,18.8
					c7.4-24.4,15.3-60,20.1-99.7c-7-4.5-14.9-10.2-19.1-15.7c-8.9-11.5-36.4-36.9-36.4-36.9l-0.6-7.1c0,0,22.7,16,39.9,33.2
					c6.4,6.4,12.4,11.4,17.5,15.1c0.1-0.8,0.2-1.7,0.3-2.5c8-78.6,4.7-194.6-8.3-218.5c-13-23.9-57.7-60-75.6-35.8
					c0,0-0.3-0.4-1-0.9C102.9,102.5,119.9,236.1,124.5,410.7z"/>
				<path fill="#FFFFFF" d="M63.6-106.6c0,0,0.6,1.9,1.6,5.7c0.5,1.9,1.1,4.1,1.9,6.8c0.7,2.7,1.6,5.8,2.4,9.2
					c0.9,3.5,1.8,7.3,2.8,11.5c1,4.2,2,8.7,3.1,13.6c1.2,4.8,2.2,10,3.4,15.5c1.1,5.5,2.4,11.2,3.5,17.2c1.2,6,2.4,12.3,3.6,18.7
					c1.2,6.5,2.3,13.2,3.6,20.1c0.6,3.5,1.2,7,1.8,10.5c0.6,3.5,1.1,7.1,1.7,10.8c1.1,7.3,2.3,14.7,3.5,22.3
					c1.2,7.6,2.2,15.3,3.3,23.1c0.5,3.9,1.1,7.8,1.6,11.8c0.6,3.9,1.1,7.9,1.6,11.9c1,8,1.9,16,2.9,24.1c0.5,4,1,8.1,1.5,12.1
					c0.5,4,0.8,8.1,1.3,12.2c0.8,8.1,1.7,16.2,2.5,24.3c0.4,4,0.8,8.1,1.2,12.1c0.3,4,0.7,8,1,12c0.7,8,1.3,15.9,2,23.8
					c0.3,3.9,0.7,7.8,1,11.7c0.3,3.9,0.5,7.7,0.8,11.5c1,15.3,2,30,2.9,44c0.7,14,1.3,27.2,1.9,39.5c0.3,6.1,0.6,12,0.8,17.5
					c0.2,5.6,0.3,10.9,0.5,15.8c0.3,9.9,0.5,18.6,0.7,25.7c0.4,14.3,0.6,22.4,0.6,22.4s-0.3-8.1-0.8-22.4
					c-0.3-7.1-0.6-15.8-0.9-25.7c-0.2-5-0.3-10.2-0.6-15.8c-0.3-5.6-0.6-11.4-0.9-17.5c-0.7-12.2-1.4-25.4-2.1-39.4
					c-1-14-2.1-28.7-3.2-44c-0.3-3.8-0.5-7.7-0.9-11.5c-0.4-3.9-0.7-7.8-1.1-11.7c-0.7-7.8-1.4-15.8-2.2-23.7c-0.4-4-0.7-8-1.1-12
					c-0.4-4-0.9-8-1.3-12.1c-0.9-8.1-1.8-16.2-2.7-24.3c-0.5-4-0.9-8.1-1.4-12.1c-0.5-4-1-8.1-1.6-12.1c-1-8.1-2.1-16.1-3.1-24
					c-0.5-4-1.1-7.9-1.6-11.9c-0.6-3.9-1.1-7.8-1.7-11.7c-1.2-7.8-2.2-15.5-3.4-23c-1.2-7.5-2.5-14.9-3.7-22.2
					c-0.6-3.6-1.2-7.2-1.8-10.8c-0.6-3.5-1.3-7-1.9-10.5c-1.3-6.9-2.5-13.6-3.7-20.1c-1.3-6.5-2.6-12.7-3.8-18.7
					c-1.2-6-2.5-11.7-3.7-17.1C74.2-49,73.2-54.2,72-59c-1.1-4.8-2.2-9.3-3.2-13.5c-1.1-4.2-2-8-2.9-11.4c-0.9-3.5-1.7-6.5-2.4-9.2
					c-0.7-2.7-1.3-4.9-1.9-6.7c-1-3.6-1.7-5.6-1.7-5.6L63.6-106.6z"/>
			</g>
			<g>
				<g>
					<g>
						<g>
							
								<linearGradient id="SVGID_13_" gradientUnits="userSpaceOnUse" x1="385.4059" y1="399.8274" x2="323.7328" y2="109.4499" gradientTransform="matrix(0.8909 -0.4542 0.4542 0.8909 319.0859 112.9796)">
								<stop  offset="0" style="stop-color:#BECC91"/>
								<stop  offset="1" style="stop-color:#6BA47D"/>
							</linearGradient>
							<path fill="url(#SVGID_13_)" d="M669.4,53.4c-9.4-15.1-15.1-26.9-15.1-26.9s-15,0.5-28.4,9.1c0,0,11.3,26.4,27.2,56.2
								L669.4,53.4z"/>
						</g>
						<g>
							
								<linearGradient id="SVGID_14_" gradientUnits="userSpaceOnUse" x1="400.3632" y1="396.6506" x2="338.6901" y2="106.2732" gradientTransform="matrix(0.8909 -0.4542 0.4542 0.8909 319.0859 112.9796)">
								<stop  offset="0" style="stop-color:#BECC91"/>
								<stop  offset="1" style="stop-color:#6BA47D"/>
							</linearGradient>
							<path fill="url(#SVGID_14_)" d="M822.7,175.7c-6.8-6.5-16.6-13.2-27.8-20c0.8,8.1,1.9,17,3.1,23.9c3,17.3-1,61.7-1,61.7
								l-7.8-5.4c0,0-1.3-19.5-3.2-40.2c-1-11.2-1.7-30.8-2.1-46.4c-26.8-15.4-58.2-31.4-76.7-48.1c-12.8-11.5-24.4-27.2-33.6-41.2
								l-18.9,34.8c5.3,9.9,11.2,20,17.2,29.7c25.2,40,107.3,108.7,150.2,133.9c0,0,25.6,1.8,24-16.4
								C845.2,230.5,846.9,199,822.7,175.7z"/>
						</g>
					</g>
				</g>
				
					<linearGradient id="SVGID_15_" gradientUnits="userSpaceOnUse" x1="319.5368" y1="240.7091" x2="333.6702" y2="-22.6864" gradientTransform="matrix(0.8909 -0.4542 0.4542 0.8909 319.0859 112.9796)">
					<stop  offset="0" style="stop-color:#6BA47D"/>
					<stop  offset="1" style="stop-color:#447862"/>
				</linearGradient>
				<path fill="url(#SVGID_15_)" d="M822.2,258.4c-42.8-25.2-125-93.8-150.2-133.9c-25.2-40-46.2-89-46.2-89
					c-10,6.4-19.2,17.4-20.6,36.2c-1.5,20.6,5,47.1,15.7,73.1c10.7,0.2,25.8,0.9,36.9,2.8c19,3.3,36.6,5.1,36.6,5.1
					s-24.6,1.7-40.6,1.2c-8.7-0.3-20.9-1.7-30.2-3c18,41.4,45.5,80.4,66.6,91.4c35.3,18.4,55.7,59.4,99.4,47.9
					C837.7,277.6,822.2,258.4,822.2,258.4z"/>
				
					<linearGradient id="SVGID_16_" gradientUnits="userSpaceOnUse" x1="302.4146" y1="43.9715" x2="451.4579" y2="77.3778" gradientTransform="matrix(0.8909 -0.4542 0.4542 0.8909 319.0859 112.9796)">
					<stop  offset="0" style="stop-color:#BECC91"/>
					<stop  offset="1" style="stop-color:#6BA47D"/>
				</linearGradient>
				<path fill="url(#SVGID_16_)" d="M733.7-6.1c-17.9-10.1-38.5-28.4-83.6,0.4c-13,8.3-22.3,18.6-28.9,29.2
					C690.6-25.7,728.8-1.1,728.8-1.1S742.9-0.9,733.7-6.1z"/>
				<path fill="#FFFFFF" d="M884.7,310c0,0-0.2-0.3-0.7-0.8c-0.5-0.5-1.2-1.3-2.1-2.3c-1.9-2-4.7-5-8.6-8.5
					c-3.8-3.6-8.6-7.8-14.2-12.3c-5.6-4.6-12.2-9.5-19.6-14.6c-1.8-1.3-3.7-2.6-5.7-3.8c-2-1.3-3.9-2.6-6-3.8
					c-2.1-1.3-4.2-2.5-6.3-3.8c-2.2-1.3-4.3-2.6-6.5-4c-8.8-5.5-17.7-11.8-26.8-18.5c-18.1-13.5-36.8-28.7-54.7-44.7
					c-9-8-17.7-16.3-26.1-24.7c-8.4-8.4-16.4-16.9-23.6-25.6c-3.6-4.4-7-8.8-10.1-13.3c-1.5-2.3-3-4.6-4.4-6.8
					c-1.4-2.3-2.8-4.5-4.1-6.7c-5.3-8.9-10-17.5-14.2-25.5c-8.4-16-14.8-29.6-19.3-39.1c-4.4-9.6-6.7-15.1-6.7-15.1l1.7-0.7
					c0,0,2.4,5.5,6.8,15c4.4,9.5,10.9,23,19.4,38.9c4.2,7.9,9,16.5,14.3,25.3c1.3,2.2,2.7,4.4,4.1,6.7c1.4,2.3,2.8,4.5,4.3,6.7
					c3.1,4.4,6.5,8.7,10,13c7.2,8.6,15.2,17,23.5,25.3c8.4,8.3,17.2,16.5,26.1,24.4c18,15.9,36.6,31,54.7,44.3
					c9.1,6.6,18,12.8,26.7,18.2c2.1,1.4,4.4,2.7,6.5,3.9c2.2,1.3,4.3,2.6,6.4,3.8c2.1,1.2,4.1,2.6,6.1,3.8c2,1.3,3.9,2.5,5.8,3.8
					c7.5,5.1,14.2,10,19.9,14.6c5.7,4.6,10.6,8.8,14.5,12.4c3.9,3.6,6.8,6.6,8.8,8.6c1,1,1.7,1.8,2.2,2.4c0.5,0.6,0.7,0.9,0.7,0.9
					L884.7,310z"/>
				<g>
					
						<linearGradient id="SVGID_17_" gradientUnits="userSpaceOnUse" x1="280.3588" y1="82.2002" x2="514.2026" y2="61.6425" gradientTransform="matrix(0.8909 -0.4542 0.4542 0.8909 319.0859 112.9796)">
						<stop  offset="0" style="stop-color:#6BA47D"/>
						<stop  offset="1" style="stop-color:#447862"/>
					</linearGradient>
					<path fill="url(#SVGID_17_)" d="M681.9-5.2c-16.3,3.4-36.6,11.6-60.6,28.6c-18.4,29.8-15.7,62.3-15.7,62.3
						C621.9,61.6,652.6,41,674.6,29c6-3.3,13.3-5.7,20.8-7.6L681.9-5.2z"/>
					
						<linearGradient id="SVGID_18_" gradientUnits="userSpaceOnUse" x1="280.9628" y1="89.071" x2="514.8066" y2="68.5133" gradientTransform="matrix(0.8909 -0.4542 0.4542 0.8909 319.0859 112.9796)">
						<stop  offset="0" style="stop-color:#6BA47D"/>
						<stop  offset="1" style="stop-color:#447862"/>
					</linearGradient>
					<path fill="url(#SVGID_18_)" d="M728.8-1.1c0,0-16.3-10.4-46.9-4L700.8,20C726.6,14,751.5,12.3,728.8-1.1z"/>
				</g>
				<path fill="#FFFFFF" d="M723.2-3.7c-3.7-1.3-9.2-2.8-15.9-3.5c-6.7-0.7-14.7-0.5-23.1,0.9c-4.2,0.7-8.4,1.7-12.7,2.9
					c-4.2,1.2-8.5,2.8-12.7,4.4c-8.4,3.4-16.5,7.4-23.8,11.7c-4,2.3-7.8,4.7-11.4,7.1c-1.5,2.2-2.9,4.5-4.2,6.8
					c4.9-3.7,10.7-7.7,17-11.5c7.1-4.4,15-8.6,23.2-12.2c4.1-1.8,8.2-3.4,12.5-4.7c4.2-1.4,8.4-2.4,12.5-3.2
					c8.2-1.6,16.1-2,22.8-1.5c6.7,0.5,12.2,1.8,15.9,3c3.7,1.2,5.7,2.3,5.7,2.3S726.9-2.3,723.2-3.7z"/>
			</g>
			<g>
				<g>
					<g>
						<g>
							
								<linearGradient id="SVGID_19_" gradientUnits="userSpaceOnUse" x1="585.9805" y1="2050.6799" x2="467.7737" y2="1764.157" gradientTransform="matrix(8.884840e-002 0.996 0.996 -8.884840e-002 -1461.7058 200.7261)">
								<stop  offset="0" style="stop-color:#BECC91"/>
								<stop  offset="1" style="stop-color:#6BA47D"/>
							</linearGradient>
							<path fill="url(#SVGID_19_)" d="M593.2,563.5c0,0,1.1,37.5,4.7,52.6c1.3,5.3,3.2,10.6,5.1,15.3c-19.1-3.2-42.6-12.5-71.8-31
								c-77.1-48.8-100.5-44.9-143.7-63.7c-4.9-2.2-10-4.4-15.2-6.6l42-33.6c42.6,9.5,91.3,24.6,140.4,48.4
								c13.6,6.6,26.6,12.8,39,18.7L593.2,563.5z"/>
						</g>
						<g>
							
								<linearGradient id="SVGID_20_" gradientUnits="userSpaceOnUse" x1="573.3107" y1="2055.907" x2="455.104" y2="1769.384" gradientTransform="matrix(8.884840e-002 0.996 0.996 -8.884840e-002 -1461.7058 200.7261)">
								<stop  offset="0" style="stop-color:#BECC91"/>
								<stop  offset="1" style="stop-color:#6BA47D"/>
							</linearGradient>
							<path fill="url(#SVGID_20_)" d="M365.9,527.5c-37-15.7-76.3-31.3-87.4-34.5c-13.3-3.8-1.1-12.8-1.1-12.8s57.9-1.4,136.9,16.3
								L365.9,527.5z"/>
						</g>
						<g>
							
								<linearGradient id="SVGID_21_" gradientUnits="userSpaceOnUse" x1="590.7" y1="2048.7329" x2="472.4932" y2="1762.21" gradientTransform="matrix(8.884840e-002 0.996 0.996 -8.884840e-002 -1461.7058 200.7261)">
								<stop  offset="0" style="stop-color:#BECC91"/>
								<stop  offset="1" style="stop-color:#6BA47D"/>
							</linearGradient>
							<path fill="url(#SVGID_21_)" d="M604.7,609.7c-3.4-15.8-8.4-44.7-8.4-44.7l-0.3-0.2c20.8,9.8,39.7,18.6,56.6,26.2
								c-0.8,0.7-1.3,1-1.3,1c1.6,12.8,9,25.2,2.8,29.6c-10.2,7.2-23.3,11.8-40.5,11C610.1,625.8,606.3,617.3,604.7,609.7z"/>
						</g>
					</g>
				</g>
				
					<linearGradient id="SVGID_22_" gradientUnits="userSpaceOnUse" x1="580.7227" y1="2227.0676" x2="429.1097" y2="1841.6107" gradientTransform="matrix(8.884840e-002 0.996 0.996 -8.884840e-002 -1461.7058 200.7261)">
					<stop  offset="0" style="stop-color:#6BA47D"/>
					<stop  offset="1" style="stop-color:#447862"/>
				</linearGradient>
				<path fill="url(#SVGID_22_)" d="M554.6,545c-140.3-68-277.2-64.8-277.2-64.8c-28.7-9.4,9.9-32.6,68.8-42.9
					c104.7-18.5,158-5.2,207.3,16.7c-3.6,6.6-7.4,15.7-9.8,27.6c-5.9,29.3,2.5,59.4,2.5,59.4s-0.8-25.3,2-44.9
					c1.5-10.6,7.8-26.2,13.2-38.4c17.8,8.3,35.4,17.5,55.1,26.6c40.8,18.9,47.3,60.3,49.1,81c0.8,9.5-9.8,23.1-13,25.8
					C625.1,578.6,592,563.2,554.6,545z"/>
				<path fill="#FFFFFF" d="M743.9,628.8c0,0-7.1-2.9-19.6-8.1c-12.4-5.2-30.2-12.8-51.3-22.2c-10.6-4.7-22-9.8-34.1-15.3
					c-12.1-5.5-24.8-11.3-37.9-17.5c-13.1-6.1-26.6-12.5-40.3-19.1c-1.7-0.8-3.4-1.6-5.2-2.5c-1.7-0.8-3.5-1.6-5.2-2.4
					c-3.5-1.6-7-3.1-10.5-4.7c-3.5-1.6-7-3.2-10.5-4.7c-3.6-1.5-7.2-2.9-10.8-4.3c-3.6-1.4-7.2-2.8-10.8-4.3
					c-1.8-0.7-3.6-1.4-5.4-2.1l-5.5-1.9c-3.6-1.3-7.3-2.5-10.9-3.8c-1.8-0.6-3.6-1.3-5.4-1.9c-1.8-0.6-3.6-1.3-5.4-1.8
					c-7.3-2.2-14.5-4.4-21.7-6.5c-7.2-2-14.3-3.8-21.3-5.6c-14.1-3.4-27.8-6.5-40.8-8.8c-3.3-0.6-6.5-1.3-9.7-1.8
					c-3.2-0.5-6.3-1-9.4-1.5c-3.1-0.5-6.1-1-9.1-1.4c-3-0.4-5.9-0.8-8.8-1.2c-2.9-0.4-5.7-0.7-8.4-1.1c-2.8-0.3-5.4-0.6-8.1-0.9
					c-5.3-0.5-10.2-1.1-14.9-1.4c-9.4-0.8-17.6-1.3-24.3-1.6c-6.8-0.3-12.1-0.4-15.7-0.4c-3.6,0-5.5,0-5.5,0s1.9,0,5.5,0
					c3.6,0.1,8.9,0.2,15.7,0.5c6.7,0.4,14.9,0.9,24.3,1.8c4.7,0.4,9.7,1,14.9,1.5c2.6,0.3,5.3,0.6,8.1,0.9c2.7,0.4,5.5,0.8,8.4,1.2
					c2.9,0.4,5.8,0.8,8.8,1.2c3,0.5,6,1,9.1,1.5c3.1,0.5,6.2,1,9.4,1.6c3.2,0.5,6.4,1.2,9.6,1.8c13,2.5,26.7,5.6,40.7,9.1
					c7,1.9,14.1,3.7,21.3,5.8c7.1,2.2,14.3,4.4,21.6,6.7c1.8,0.5,3.6,1.2,5.4,1.8c1.8,0.6,3.6,1.3,5.4,1.9c3.6,1.3,7.2,2.6,10.8,3.8
					l5.4,1.9c1.8,0.7,3.6,1.4,5.4,2.1c3.6,1.4,7.1,2.9,10.7,4.3c3.6,1.5,7.1,2.9,10.7,4.3c3.5,1.6,7,3.2,10.5,4.8
					c3.5,1.6,7,3.2,10.5,4.8c1.7,0.8,3.5,1.6,5.2,2.4c1.7,0.8,3.4,1.7,5.1,2.5c13.7,6.7,27.1,13.2,40.2,19.4
					c13.1,6.2,25.7,12.2,37.8,17.8c12,5.6,23.4,10.8,34,15.6c21.1,9.6,38.8,17.3,51.2,22.6c12.4,5.3,19.6,8.3,19.6,8.3L743.9,628.8z
					"/>
			</g>
			<g>
				<g>
					
						<linearGradient id="SVGID_23_" gradientUnits="userSpaceOnUse" x1="-765.6949" y1="836.0673" x2="-721.6949" y2="544.0673" gradientTransform="matrix(0.8333 0.5528 -0.5528 0.8333 1245.1776 203.9773)">
						<stop  offset="0" style="stop-color:#BECC91"/>
						<stop  offset="1" style="stop-color:#6BA47D"/>
					</linearGradient>
					<path fill="url(#SVGID_23_)" d="M41.3,525.4c-22.8,31.5-42,59.8-58,84.3c0.2,3.1,1.3,11.3,7,19.8c7.2,10.7,60.2,15,81.9-5.1
						c9.2-8.5,30.1-43.7,53-85.2L41.3,525.4z"/>
					
						<linearGradient id="SVGID_24_" gradientUnits="userSpaceOnUse" x1="-784.1288" y1="833.2896" x2="-740.1288" y2="541.2896" gradientTransform="matrix(0.8333 0.5528 -0.5528 0.8333 1245.1776 203.9773)">
						<stop  offset="0" style="stop-color:#BECC91"/>
						<stop  offset="1" style="stop-color:#6BA47D"/>
					</linearGradient>
					<path fill="url(#SVGID_24_)" d="M129.8,530.7c29.9-54.4,62.3-117.1,76.9-145.1c26.8-51.2,41-94,19-86c0,0,0.5-1.8,0.7-4.4
						C148.8,382.9,87.8,461,41.4,525.3L129.8,530.7z"/>
				</g>
				
					<linearGradient id="SVGID_25_" gradientUnits="userSpaceOnUse" x1="-325.343" y1="761.9718" x2="-365.343" y2="471.9718" gradientTransform="matrix(0.8572 0.515 -0.515 0.8572 731.3148 -4.2917)">
					<stop  offset="0" style="stop-color:#6BA47D"/>
					<stop  offset="1" style="stop-color:#447862"/>
				</linearGradient>
				<path fill="url(#SVGID_25_)" d="M226.4,295.2c0.3-3.9,0-9.4-4-12.1c-2.5-1.6-12.6,2.2-27.3,10.3l1.1,36.2l-7.4-32.7
					c-22,12.8-52.1,33.5-82.7,59.2c2.1,8.1,3.9,17.6,3.3,24.5c-1.4,14.5,1.4,51.8,1.4,51.8l-4.4,5.6c0,0-5.7-27.1-6.5-51.5
					c-0.3-9-1.3-16.8-2.4-23c-0.6,0.6-1.3,1.1-1.9,1.7c-59.5,52.1-136.2,139-143,165.4c-6.8,26.4,1.2,83.2,30.9,77.7
					c0,0,0,0.5,0.1,1.3C31.9,535.3,110.6,426,226.4,295.2z"/>
				<path fill="#FFFFFF" d="M-82,715c0,0,0.9-1.8,2.7-5.2c0.9-1.7,2-3.8,3.3-6.3c1.3-2.4,2.8-5.3,4.6-8.4c1.7-3.1,3.7-6.6,5.8-10.3
					c2.2-3.7,4.5-7.8,7-12.1c2.5-4.3,5.2-8.8,8.1-13.6c2.9-4.8,5.9-9.8,9.2-15c3.2-5.2,6.6-10.6,10.1-16.2
					c3.5-5.6,7.3-11.3,11.1-17.1c1.9-2.9,3.9-5.9,5.8-8.9c2-3,4-6,6.1-9.1c4.1-6.1,8.3-12.3,12.6-18.7c4.3-6.3,8.8-12.6,13.3-19.1
					c2.3-3.2,4.5-6.5,6.8-9.7c2.3-3.3,4.6-6.5,7-9.8c4.7-6.5,9.5-13,14.3-19.6c2.4-3.3,4.8-6.6,7.2-9.9c2.4-3.3,4.9-6.5,7.4-9.8
					c4.9-6.5,9.9-13,14.8-19.5c2.5-3.2,4.9-6.5,7.4-9.7c2.5-3.2,5-6.3,7.5-9.5c5-6.3,9.9-12.6,14.8-18.7c2.4-3.1,4.9-6.2,7.3-9.2
					c2.4-3.1,4.9-6,7.3-9c9.7-11.8,19-23.3,27.9-34.1c9.1-10.7,17.6-20.8,25.6-30.1c4-4.7,7.8-9.1,11.4-13.4
					c3.6-4.2,7.2-8.2,10.4-11.9c6.6-7.5,12.3-13.9,17-19.3c9.4-10.7,14.8-16.8,14.8-16.8s-5.3,6.2-14.7,16.9
					c-4.7,5.4-10.4,11.9-16.9,19.4c-3.2,3.8-6.8,7.7-10.4,12c-3.6,4.3-7.3,8.8-11.3,13.5c-7.8,9.4-16.3,19.5-25.3,30.3
					c-8.8,10.9-18.1,22.4-27.7,34.3c-2.4,3-4.8,6-7.2,9c-2.4,3.1-4.8,6.2-7.2,9.3c-4.8,6.2-9.7,12.5-14.6,18.8
					c-2.5,3.2-4.9,6.4-7.4,9.5c-2.4,3.2-4.8,6.5-7.3,9.7c-4.9,6.5-9.7,13-14.6,19.6c-2.4,3.3-4.9,6.5-7.3,9.8
					c-2.4,3.3-4.8,6.6-7.1,9.9c-4.7,6.6-9.5,13.2-14.1,19.7c-2.4,3.2-4.6,6.5-6.9,9.8c-2.3,3.3-4.5,6.5-6.7,9.8
					c-4.5,6.5-8.9,12.8-13.2,19.2c-4.2,6.4-8.4,12.6-12.5,18.7c-2,3.1-4.1,6.1-6,9.1c-1.9,3-3.9,6-5.7,9c-3.8,5.9-7.5,11.6-11,17.2
					c-3.5,5.6-6.8,11-10,16.2c-3.2,5.2-6.2,10.2-9,15c-2.8,4.8-5.6,9.3-8,13.6c-2.5,4.3-4.8,8.3-6.9,12.1c-2.1,3.8-4,7.2-5.7,10.3
					c-1.7,3.1-3.2,5.9-4.5,8.4c-1.3,2.4-2.4,4.5-3.2,6.2c-1.7,3.4-2.6,5.2-2.6,5.2L-82,715z"/>
			</g>
			<g>
				<g>
					
						<linearGradient id="SVGID_26_" gradientUnits="userSpaceOnUse" x1="-135.4905" y1="523.3712" x2="-91.4905" y2="231.3712" gradientTransform="matrix(-0.8333 0.5528 0.5528 0.8333 301.3575 203.9773)">
						<stop  offset="0" style="stop-color:#BECC91"/>
						<stop  offset="1" style="stop-color:#6BA47D"/>
					</linearGradient>
					<path fill="url(#SVGID_26_)" d="M704.9,631C675,576.6,642.7,513.9,628,485.9c-26.8-51.2-41-94-19-86c0,0-0.5-1.8-0.7-4.4
						c77.7,87.7,138.6,165.8,185.1,230.1L704.9,631z"/>
				</g>
				
					<linearGradient id="SVGID_27_" gradientUnits="userSpaceOnUse" x1="336.4939" y1="481.3424" x2="296.4939" y2="191.3424" gradientTransform="matrix(-0.8572 0.515 0.515 0.8572 815.2203 -4.2917)">
					<stop  offset="0" style="stop-color:#6BA47D"/>
					<stop  offset="1" style="stop-color:#447862"/>
				</linearGradient>
				<path fill="url(#SVGID_27_)" d="M608.3,395.5c-0.3-3.9,0-9.4,4-12.1c2.5-1.6,12.6,2.2,27.3,10.3l-1.1,36.2l7.4-32.7
					c22,12.8,52.1,33.5,82.7,59.2c-2.1,8.1-3.9,17.6-3.3,24.5c1.4,14.5-1.4,51.8-1.4,51.8l4.4,5.6c0,0,5.7-27.1,6.5-51.5
					c0.3-9,1.3-16.8,2.4-23c0.6,0.6,1.3,1.1,1.9,1.7c59.5,52.1,136.2,139,143,165.4c6.8,26.4-1.2,83.2-30.9,77.7c0,0,0,0.5-0.1,1.3
					C802.8,635.6,724.1,526.3,608.3,395.5z"/>
				<path fill="#FFFFFF" d="M916.7,815.3c0,0-0.9-1.8-2.7-5.2c-0.9-1.7-2-3.8-3.3-6.3c-1.3-2.4-2.8-5.3-4.6-8.4
					c-1.7-3.1-3.7-6.6-5.8-10.3c-2.2-3.7-4.5-7.8-7-12.1c-2.5-4.3-5.2-8.8-8.1-13.6c-2.9-4.8-5.9-9.8-9.2-15
					c-3.2-5.2-6.6-10.6-10.1-16.2c-3.5-5.6-7.3-11.3-11.1-17.1c-1.9-2.9-3.9-5.9-5.8-8.9c-2-3-4-6-6.1-9.1
					c-4.1-6.1-8.3-12.3-12.6-18.7c-4.3-6.3-8.8-12.6-13.3-19.1c-2.3-3.2-4.5-6.5-6.8-9.7c-2.3-3.3-4.6-6.5-7-9.8
					c-4.7-6.5-9.5-13-14.3-19.6c-2.4-3.3-4.8-6.6-7.2-9.9c-2.4-3.3-4.9-6.5-7.4-9.8c-4.9-6.5-9.9-13-14.8-19.5
					c-2.5-3.2-4.9-6.5-7.4-9.7c-2.5-3.2-5-6.3-7.5-9.5c-5-6.3-9.9-12.6-14.8-18.7c-2.4-3.1-4.9-6.2-7.3-9.2c-2.4-3.1-4.9-6-7.3-9
					c-9.7-11.8-19-23.3-27.9-34.1c-9.1-10.7-17.6-20.8-25.6-30.1c-4-4.7-7.8-9.1-11.4-13.4c-3.6-4.2-7.2-8.2-10.4-11.9
					c-6.6-7.5-12.3-13.9-17-19.3c-9.4-10.7-14.8-16.8-14.8-16.8s5.3,6.2,14.7,16.9c4.7,5.4,10.4,11.9,16.9,19.4
					c3.2,3.8,6.8,7.7,10.4,12c3.6,4.3,7.3,8.8,11.3,13.5c7.8,9.4,16.3,19.5,25.3,30.3c8.8,10.9,18.1,22.4,27.7,34.3
					c2.4,3,4.8,6,7.2,9c2.4,3.1,4.8,6.2,7.2,9.3c4.8,6.2,9.7,12.5,14.6,18.8c2.5,3.2,4.9,6.4,7.4,9.5c2.4,3.2,4.8,6.5,7.3,9.7
					c4.9,6.5,9.7,13,14.6,19.6c2.4,3.3,4.9,6.5,7.3,9.8c2.4,3.3,4.8,6.6,7.1,9.9c4.7,6.6,9.5,13.2,14.1,19.7
					c2.4,3.2,4.6,6.5,6.9,9.8c2.3,3.3,4.5,6.5,6.7,9.8c4.5,6.5,8.9,12.8,13.2,19.2c4.2,6.4,8.4,12.6,12.5,18.7c2,3.1,4.1,6.1,6,9.1
					c1.9,3,3.9,6,5.7,9c3.8,5.9,7.5,11.6,11,17.2c3.5,5.6,6.8,11,10,16.2c3.2,5.2,6.2,10.2,9,15c2.8,4.8,5.6,9.3,8,13.6
					c2.5,4.3,4.8,8.3,6.9,12.1c2.1,3.8,4,7.2,5.7,10.3c1.7,3.1,3.2,5.9,4.5,8.4c1.3,2.4,2.4,4.5,3.2,6.2c1.7,3.4,2.6,5.2,2.6,5.2
					L916.7,815.3z"/>
			</g>
			<g>
				<g>
					
						<linearGradient id="SVGID_28_" gradientUnits="userSpaceOnUse" x1="-252.0259" y1="1847.8361" x2="-208.0259" y2="1555.8361" gradientTransform="matrix(0.9648 0.2631 0.2631 -0.9648 146.0244 2028.569)">
						<stop  offset="0" style="stop-color:#BECC91"/>
						<stop  offset="1" style="stop-color:#6BA47D"/>
					</linearGradient>
					<path fill="url(#SVGID_28_)" d="M357,69.9c8.8-37.9,17.3-71,25.2-99.2c2.5-1.9,9.4-6.5,19.4-7.8c12.8-1.7,50.9,35.4,50,65
						c-0.4,12.6-13.1,51.4-29.2,96.1L357,69.9z"/>
					
						<linearGradient id="SVGID_29_" gradientUnits="userSpaceOnUse" x1="-270.4597" y1="1845.0583" x2="-226.4597" y2="1553.0583" gradientTransform="matrix(0.9648 0.2631 0.2631 -0.9648 146.0244 2028.569)">
						<stop  offset="0" style="stop-color:#BECC91"/>
						<stop  offset="1" style="stop-color:#6BA47D"/>
					</linearGradient>
					<path fill="url(#SVGID_29_)" d="M419.2,133c-21.3,58.3-47.2,124-58.6,153.5c-20.9,53.9-43.8,92.8-52.2,71c0,0-1.1,1.6-2.8,3.4
						C320.6,244.6,339.2,147.3,357,70L419.2,133z"/>
				</g>
				
					<linearGradient id="SVGID_30_" gradientUnits="userSpaceOnUse" x1="142.6098" y1="1795.6797" x2="102.6098" y2="1505.6797" gradientTransform="matrix(0.952 0.306 0.306 -0.952 -349.0832 1778.9701)">
					<stop  offset="0" style="stop-color:#6BA47D"/>
					<stop  offset="1" style="stop-color:#447862"/>
				</linearGradient>
				<path fill="url(#SVGID_30_)" d="M305.7,360.9c-2.7,2.8-7.1,6.2-11.8,4.9c-2.9-0.8-6.6-10.9-10.2-27.4l28-23.1l-29.5,15.9
					c-4.9-25-9.1-61.3-9.9-101.2c7.4-3.7,15.8-8.6,20.6-13.7c10-10.6,39.9-33,39.9-33l1.3-7c0,0-24.2,13.6-43.1,29
					c-7,5.7-13.5,10.1-18.9,13.3c0-0.8,0-1.7,0-2.5c0-79.1,14.9-194.1,30.3-216.6c15.4-22.5,63.5-53.9,78.8-28c0,0,0.4-0.3,1-0.8
					C358.3,56.3,327.9,187.6,305.7,360.9z"/>
				<path fill="#FFFFFF" d="M418.5-147.7c0,0-0.8,1.9-2.2,5.5c-0.7,1.8-1.6,4-2.5,6.6c-1,2.6-2.1,5.6-3.3,9c-1.2,3.4-2.5,7.1-4,11.1
					c-1.4,4.1-2.9,8.5-4.5,13.2c-1.6,4.7-3.2,9.8-4.9,15.1c-1.7,5.3-3.5,10.9-5.3,16.8c-1.8,5.9-3.6,12-5.5,18.3
					c-1.9,6.3-3.7,12.9-5.6,19.7c-1,3.4-1.9,6.8-2.9,10.3c-1,3.5-1.9,7-2.8,10.6c-1.9,7.1-3.8,14.4-5.7,21.8
					c-1.9,7.4-3.7,15-5.6,22.6c-0.9,3.8-1.9,7.7-2.8,11.5c-0.9,3.9-1.9,7.7-2.8,11.7c-1.8,7.8-3.5,15.7-5.3,23.7
					c-0.9,4-1.8,7.9-2.7,11.9c-0.9,4-1.7,8-2.5,12c-1.6,8-3.3,16-4.9,23.9c-0.8,4-1.6,8-2.4,11.9c-0.7,4-1.5,7.9-2.2,11.9
					c-1.5,7.9-2.9,15.7-4.4,23.5c-0.7,3.9-1.4,7.7-2.2,11.5c-0.7,3.8-1.3,7.6-2,11.4c-2.5,15.1-5,29.7-7.3,43.5
					c-2.1,13.9-4,27-5.8,39.1c-0.9,6-1.8,11.8-2.6,17.4c-0.8,5.5-1.4,10.8-2.1,15.7c-1.3,9.9-2.4,18.4-3.3,25.5
					c-1.8,14.1-2.9,22.2-2.9,22.2s1.1-8.1,3.1-22.2c1-7.1,2.1-15.6,3.5-25.5c0.7-4.9,1.4-10.2,2.2-15.7c0.9-5.5,1.8-11.3,2.7-17.3
					c1.9-12.1,3.9-25.2,6.1-39c2.4-13.8,5-28.4,7.6-43.4c0.7-3.8,1.3-7.6,2-11.4c0.7-3.8,1.5-7.6,2.2-11.5c1.5-7.7,3-15.5,4.6-23.4
					c0.8-3.9,1.5-7.9,2.3-11.9c0.8-4,1.7-7.9,2.5-11.9c1.7-7.9,3.4-15.9,5.1-23.9c0.9-4,1.7-8,2.6-11.9c0.9-4,1.8-7.9,2.8-11.9
					c1.8-7.9,3.7-15.8,5.5-23.6c0.9-3.9,1.9-7.8,2.8-11.6c1-3.9,1.9-7.7,2.9-11.5c1.9-7.6,3.8-15.2,5.7-22.5c2-7.4,4-14.6,5.9-21.7
					c1-3.5,1.9-7.1,2.9-10.5c1-3.4,2-6.9,3-10.2c2-6.7,3.8-13.3,5.7-19.6c1.9-6.3,3.8-12.4,5.6-18.2c1.8-5.9,3.6-11.4,5.4-16.7
					c1.7-5.3,3.3-10.3,5-15c1.6-4.7,3.1-9.1,4.6-13.1c1.5-4,2.8-7.7,4-11.1c1.2-3.4,2.4-6.3,3.4-8.9c1-2.6,1.8-4.8,2.6-6.5
					c1.4-3.5,2.2-5.4,2.2-5.4L418.5-147.7z"/>
			</g>
			<g>
				<g>
					<g>
						<g>
							
								<linearGradient id="SVGID_31_" gradientUnits="userSpaceOnUse" x1="923.2164" y1="856.4896" x2="805.0096" y2="569.9667" gradientTransform="matrix(0.6563 0.7545 -0.7545 0.6563 786.698 -747.7427)">
								<stop  offset="0" style="stop-color:#BECC91"/>
								<stop  offset="1" style="stop-color:#6BA47D"/>
							</linearGradient>
							<path fill="url(#SVGID_31_)" d="M746,455.5c0,0,26.3,26.8,34.7,39.9c2.9,4.6,5.5,9.7,7.5,14.3c10.9-15.9,20.5-39.4,27.5-73.2
								c18.3-89.4,37.4-103.6,53.7-147.7c1.9-5.1,3.8-10.3,5.8-15.5l-53.3,6.9c-22.6,37.3-45.5,82.8-62.4,134.7
								c-4.7,14.4-9.2,28.1-13.6,41.1L746,455.5z"/>
						</g>
						<g>
							
								<linearGradient id="SVGID_32_" gradientUnits="userSpaceOnUse" x1="927.9358" y1="854.5425" x2="809.7291" y2="568.0197" gradientTransform="matrix(0.6563 0.7545 -0.7545 0.6563 786.698 -747.7427)">
								<stop  offset="0" style="stop-color:#BECC91"/>
								<stop  offset="1" style="stop-color:#6BA47D"/>
							</linearGradient>
							<path fill="url(#SVGID_32_)" d="M771.3,495.9c-9.1-13.4-26.4-37.1-26.4-37.1l0.1-0.4c-7.3,21.8-14.1,41.5-20.3,59
								c1-0.1,1.6-0.2,1.6-0.2c8.2,10,11.9,23.9,19.4,22.5c12.3-2.3,24.7-8.6,36-21.6C779.2,510.8,775.6,502.2,771.3,495.9z"/>
						</g>
					</g>
				</g>
				
					<linearGradient id="SVGID_33_" gradientUnits="userSpaceOnUse" x1="917.9586" y1="1032.8772" x2="766.3456" y2="647.4203" gradientTransform="matrix(0.6563 0.7545 -0.7545 0.6563 786.698 -747.7427)">
					<stop  offset="0" style="stop-color:#6BA47D"/>
					<stop  offset="1" style="stop-color:#447862"/>
				</linearGradient>
				<path fill="url(#SVGID_33_)" d="M759.4,414.8C807.7,266.6,905,170.1,905,170.1c13.1-27.2-30.4-15.4-78.6,19.8
					c-85.9,62.6-113.3,110.3-131.7,161c7.3,2,16.5,5.6,26.7,12.1c25.2,16,41,43,41,43s-17.7-18.1-33.8-29.7
					c-8.6-6.2-24.3-12.6-36.9-17.1c-6.4,18.6-11.9,37.6-19,58.1c-14.7,42.6,10.6,75.9,24.3,91.6c6.3,7.2,23.4,9,27.6,8.5
					C734.8,488.9,746.6,454.4,759.4,414.8z"/>
				<path fill="#FFFFFF" d="M688.6,609.4c0,0,2.9-7.1,7.7-19.7c4.9-12.6,11.7-30.6,19.6-52.4c4-10.9,8.2-22.7,12.6-35.2
					c4.4-12.5,9-25.7,13.7-39.4c4.7-13.7,9.5-27.9,14.2-42.3c0.6-1.8,1.2-3.6,1.8-5.4c0.6-1.8,1.3-3.6,1.9-5.4
					c1.3-3.6,2.6-7.2,3.9-10.8c1.3-3.6,2.6-7.2,3.9-10.9c1.4-3.6,2.9-7.2,4.4-10.7c1.5-3.6,2.9-7.2,4.4-10.7
					c0.7-1.8,1.4-3.6,2.2-5.4l2.4-5.2c1.6-3.5,3.2-7,4.8-10.5c0.8-1.7,1.6-3.5,2.4-5.2c0.8-1.7,1.6-3.5,2.5-5.2
					c3.5-6.8,6.9-13.5,10.3-20.1c3.6-6.5,7.2-12.9,10.8-19.3c7.3-12.5,14.6-24.5,22-35.5c1.8-2.8,3.6-5.6,5.4-8.2
					c1.8-2.6,3.7-5.3,5.4-7.8c1.8-2.6,3.5-5.1,5.3-7.6c1.8-2.4,3.5-4.8,5.3-7.1c1.7-2.3,3.4-4.6,5.1-6.8c1.7-2.2,3.4-4.3,5-6.4
					c3.2-4.2,6.3-8.1,9.3-11.7c5.9-7.3,11.3-13.5,15.7-18.6c4.5-5.1,8.1-8.9,10.6-11.6c2.5-2.6,3.9-4,3.9-4s-1.4,1.4-3.8,4
					c-2.5,2.6-6,6.6-10.5,11.7c-4.4,5.1-9.7,11.4-15.6,18.7c-3,3.6-6,7.6-9.2,11.8c-1.6,2.1-3.3,4.2-4.9,6.5c-1.6,2.2-3.3,4.5-5,6.9
					c-1.7,2.3-3.4,4.7-5.2,7.2c-1.7,2.5-3.4,5-5.2,7.6c-1.8,2.6-3.6,5.2-5.4,7.9c-1.8,2.6-3.5,5.4-5.3,8.2
					c-7.3,11.1-14.4,23.1-21.6,35.6c-3.5,6.3-7.1,12.8-10.6,19.3c-3.3,6.6-6.7,13.4-10.1,20.2c-0.9,1.7-1.6,3.4-2.4,5.2
					c-0.8,1.7-1.6,3.5-2.4,5.2c-1.6,3.5-3.2,7-4.7,10.5l-2.4,5.3c-0.8,1.8-1.4,3.6-2.2,5.3c-1.4,3.6-2.9,7.1-4.3,10.7
					c-1.4,3.6-2.9,7.1-4.3,10.7c-1.3,3.6-2.5,7.3-3.8,10.9c-1.3,3.6-2.5,7.3-3.8,10.9c-0.6,1.8-1.2,3.6-1.9,5.4
					c-0.6,1.8-1.2,3.6-1.8,5.4c-4.7,14.5-9.3,28.7-13.9,42.4c-4.6,13.7-9.1,27-13.4,39.5c-4.3,12.6-8.5,24.4-12.3,35.3
					c-7.8,21.8-14.4,40-19.2,52.6c-4.8,12.7-7.6,19.9-7.6,19.9L688.6,609.4z"/>
			</g>
			<g>
				<g>
					<g>
						<g>
							
								<linearGradient id="SVGID_34_" gradientUnits="userSpaceOnUse" x1="2198.8137" y1="1720.3075" x2="2080.6069" y2="1433.7845" gradientTransform="matrix(-4.820158e-003 -1 1 -4.820158e-003 -873.9258 2225.8987)">
								<stop  offset="0" style="stop-color:#BECC91"/>
								<stop  offset="1" style="stop-color:#6BA47D"/>
							</linearGradient>
							<path fill="url(#SVGID_34_)" d="M799.8,61c0,0-2.4-37.5-0.3-52.8c0.8-5.4,2.2-10.9,3.6-15.7C784.5-2.6,762,8.9,734.6,30
								c-72.2,55.8-95.9,54.1-137.1,76.9c-4.7,2.6-9.6,5.3-14.6,8l44.9,29.6c41.5-13.5,88.6-33,135.2-61.4
								c12.9-7.8,25.3-15.3,37.1-22.3L799.8,61z"/>
						</g>
						<g>
							
								<linearGradient id="SVGID_35_" gradientUnits="userSpaceOnUse" x1="2186.144" y1="1725.5344" x2="2067.9373" y2="1439.0116" gradientTransform="matrix(-4.820158e-003 -1 1 -4.820158e-003 -873.9258 2225.8987)">
								<stop  offset="0" style="stop-color:#BECC91"/>
								<stop  offset="1" style="stop-color:#6BA47D"/>
							</linearGradient>
							<path fill="url(#SVGID_35_)" d="M576.9,118.1c-35.4,19.1-73.1,38.3-83.8,42.5c-12.9,5,0.1,12.9,0.1,12.9s57.7-4.1,134.7-29.1
								L576.9,118.1z"/>
						</g>
					</g>
				</g>
				
					<linearGradient id="SVGID_36_" gradientUnits="userSpaceOnUse" x1="2193.5559" y1="1896.6951" x2="2041.943" y2="1511.2383" gradientTransform="matrix(-4.820158e-003 -1 1 -4.820158e-003 -873.9258 2225.8987)">
					<stop  offset="0" style="stop-color:#6BA47D"/>
					<stop  offset="1" style="stop-color:#447862"/>
				</linearGradient>
				<path fill="url(#SVGID_36_)" d="M763.1,83.1c-133.3,80.9-270,90.4-270,90.4c-27.7,12,13,31.5,72.5,36.3
					c105.9,8.6,157.8-9.6,204.9-36.1c-4.2-6.3-8.8-15-12.3-26.6c-8.7-28.6-3-59.3-3-59.3s1.6,25.3,6.2,44.6
					c2.5,10.4,10.2,25.4,16.8,37c16.9-9.9,33.6-20.8,52.3-31.7c38.9-22.7,41.5-64.4,41.4-85.2c0-9.6-11.9-22.1-15.4-24.5
					C830.1,43.1,798.7,61.5,763.1,83.1z"/>
				<path fill="#FFFFFF" d="M943.8-18.1c0,0-6.8,3.5-18.7,9.9c-11.9,6.4-28.8,15.6-49,26.9c-10.1,5.7-21,11.8-32.5,18.4
					c-11.5,6.6-23.6,13.6-36.1,20.9C794.9,65.4,782,73,769,80.8c-1.6,1-3.3,2-4.9,2.9c-1.7,1-3.3,1.9-5,2.9c-3.3,1.9-6.7,3.8-10,5.7
					c-3.3,1.9-6.7,3.8-10,5.7c-3.4,1.8-6.9,3.5-10.3,5.3c-3.4,1.8-6.9,3.5-10.3,5.3c-1.7,0.9-3.4,1.8-5.2,2.6l-5.3,2.4
					c-3.5,1.6-7,3.2-10.5,4.8c-1.7,0.8-3.5,1.6-5.2,2.4c-1.7,0.8-3.5,1.6-5.2,2.3c-7,2.9-14,5.7-20.9,8.5c-7,2.6-13.9,5.1-20.7,7.6
					c-13.7,4.7-27,9-39.8,12.6c-3.2,0.9-6.3,1.9-9.4,2.7c-3.1,0.8-6.2,1.6-9.2,2.4c-3,0.8-6,1.5-8.9,2.3c-2.9,0.7-5.8,1.3-8.6,2
					c-2.8,0.6-5.6,1.3-8.3,1.9c-2.7,0.6-5.4,1.1-8,1.6c-5.2,1-10.1,2.1-14.7,2.8c-9.3,1.7-17.4,2.9-24.1,3.8
					c-6.7,0.9-12,1.5-15.6,1.9c-3.6,0.3-5.5,0.5-5.5,0.5s1.9-0.2,5.5-0.5c3.6-0.4,8.9-1,15.6-2c6.7-1,14.8-2.3,24-4
					c4.6-0.8,9.5-1.9,14.7-2.9c2.6-0.6,5.2-1.1,7.9-1.7c2.7-0.6,5.5-1.3,8.3-2c2.8-0.7,5.7-1.3,8.6-2c2.9-0.8,5.9-1.6,8.9-2.4
					c3-0.8,6.1-1.6,9.2-2.4c3.1-0.8,6.2-1.8,9.4-2.7c12.7-3.7,26-8.1,39.7-12.9c6.8-2.5,13.7-5,20.6-7.7c6.9-2.9,13.8-5.7,20.8-8.7
					c1.8-0.7,3.5-1.5,5.2-2.3c1.7-0.8,3.5-1.6,5.2-2.4c3.5-1.6,6.9-3.2,10.4-4.8l5.2-2.4c1.7-0.8,3.4-1.8,5.1-2.6
					c3.4-1.8,6.8-3.5,10.3-5.3c3.4-1.8,6.8-3.5,10.2-5.3c3.3-1.9,6.7-3.9,10-5.8c3.3-1.9,6.6-3.8,10-5.8c1.6-1,3.3-1.9,4.9-2.9
					c1.6-1,3.3-2,4.9-3c13-7.9,25.8-15.6,38.2-23.1c12.4-7.4,24.5-14.5,36-21.2c11.5-6.7,22.3-13,32.4-18.7
					c20.1-11.5,37-20.9,48.9-27.3c11.9-6.5,18.7-10.1,18.7-10.1L943.8-18.1z"/>
			</g>
			<g>
				<g>
					<g>
						<g>
							
								<linearGradient id="SVGID_37_" gradientUnits="userSpaceOnUse" x1="617.7974" y1="1650.4808" x2="499.5907" y2="1363.958" gradientTransform="matrix(-0.4433 0.8964 0.8964 0.4433 -840.5562 -535.201)">
								<stop  offset="0" style="stop-color:#BECC91"/>
								<stop  offset="1" style="stop-color:#6BA47D"/>
							</linearGradient>
							<path fill="url(#SVGID_37_)" d="M351.2,696.6c0,0-18.6,32.6-23.4,47.3c-1.7,5.2-2.8,10.7-3.6,15.7
								c-14.6-12.6-29.8-32.9-45.1-63.9c-40.4-81.8-62.4-90.7-89.5-129.3c-3.1-4.4-6.3-8.9-9.6-13.5l53.4-6.8
								c31.4,30.3,65.1,68.6,94.6,114.5c8.2,12.7,16,24.8,23.5,36.3L351.2,696.6z"/>
						</g>
						<g>
							
								<linearGradient id="SVGID_38_" gradientUnits="userSpaceOnUse" x1="605.1276" y1="1655.7079" x2="486.9209" y2="1369.1849" gradientTransform="matrix(-0.4433 0.8964 0.8964 0.4433 -840.5562 -535.201)">
								<stop  offset="0" style="stop-color:#BECC91"/>
								<stop  offset="1" style="stop-color:#6BA47D"/>
							</linearGradient>
							<path fill="url(#SVGID_38_)" d="M176,547.4c-23.4-32.7-48.8-66.5-56.6-74.9c-9.3-10.1,5.7-11.5,5.7-11.5s50.1,29,108.3,85.3
								L176,547.4z"/>
						</g>
					</g>
				</g>
				
					<linearGradient id="SVGID_39_" gradientUnits="userSpaceOnUse" x1="612.5397" y1="1826.8685" x2="460.9266" y2="1441.4116" gradientTransform="matrix(-0.4433 0.8964 0.8964 0.4433 -840.5562 -535.201)">
					<stop  offset="0" style="stop-color:#6BA47D"/>
					<stop  offset="1" style="stop-color:#447862"/>
				</linearGradient>
				<path fill="url(#SVGID_39_)" d="M327.9,660.7c-84.3-131.2-202.9-199.8-202.9-199.8c-19.6-22.9,25.5-22.6,81.1-0.8
					c98.9,38.8,137.6,77.9,168.2,122.3c-6.6,3.8-14.5,9.6-22.8,18.5c-20.3,21.9-28.8,52-28.8,52s12.5-22,25.1-37.3
					c6.8-8.2,20.3-18.3,31.3-25.9c10.9,16.3,21.1,33.4,33.1,51.4c25,37.5,9,76.1-0.3,94.7c-4.2,8.6-20.4,14.7-24.6,15.2
					C370.6,726,350.4,695.7,327.9,660.7z"/>
				<path fill="#FFFFFF" d="M445.8,830.9c0,0-4.6-6.2-12.5-17.1c-7.9-11-19.1-26.7-32.2-45.7c-6.6-9.5-13.7-19.9-21.1-30.8
					c-7.4-11-15.2-22.6-23.2-34.6c-8-12.1-16.2-24.6-24.5-37.3c-1-1.6-2.1-3.2-3.1-4.8c-1.1-1.6-2.2-3.2-3.2-4.8
					c-2.2-3.2-4.3-6.3-6.5-9.5c-2.2-3.2-4.3-6.4-6.5-9.5c-2.3-3.1-4.6-6.2-7-9.3c-2.3-3.1-4.7-6.2-7-9.3c-1.2-1.5-2.3-3.1-3.5-4.6
					l-3.7-4.5c-2.4-3-4.9-5.9-7.3-8.9c-1.2-1.5-2.4-3-3.7-4.4c-1.2-1.5-2.4-3-3.7-4.4c-5.1-5.7-10.1-11.3-15.1-16.8
					c-5.1-5.4-10.3-10.7-15.3-15.9c-10.2-10.2-20.3-20-30.2-28.8c-2.5-2.2-4.8-4.5-7.3-6.5c-2.5-2.1-4.9-4.2-7.2-6.2
					c-2.4-2-4.7-4-7-6c-2.3-1.9-4.6-3.7-6.9-5.6c-2.3-1.8-4.5-3.6-6.6-5.3c-2.2-1.7-4.3-3.3-6.4-5c-4.2-3.2-8.2-6.3-12-9
					c-7.6-5.6-14.3-10.2-19.9-14c-5.6-3.8-10.1-6.6-13.2-8.5c-3.1-1.9-4.8-2.9-4.8-2.9s1.7,1,4.7,2.9c3.1,1.9,7.5,4.8,13.1,8.6
					c5.6,3.8,12.3,8.5,19.8,14.2c3.8,2.8,7.7,5.9,11.9,9.1c2.1,1.6,4.2,3.3,6.4,5c2.1,1.8,4.3,3.6,6.6,5.4c2.2,1.8,4.5,3.7,6.9,5.6
					c2.3,2,4.6,4,7,6c2.4,2,4.8,4.1,7.2,6.2c2.5,2.1,4.8,4.4,7.3,6.6c9.8,8.9,19.8,18.7,30,29c5,5.3,10.1,10.5,15.1,16
					c4.9,5.6,9.9,11.2,14.9,16.9c1.3,1.4,2.5,2.9,3.7,4.4c1.2,1.5,2.4,3,3.6,4.4c2.4,3,4.8,5.9,7.2,8.9l3.6,4.5
					c1.2,1.5,2.3,3.1,3.5,4.6c2.3,3.1,4.6,6.2,6.9,9.3c2.3,3.1,4.6,6.2,6.9,9.3c2.2,3.2,4.3,6.4,6.4,9.6c2.1,3.2,4.3,6.4,6.4,9.6
					c1.1,1.6,2.1,3.2,3.2,4.7c1,1.6,2.1,3.2,3.1,4.8c8.2,12.8,16.3,25.4,24.2,37.5c7.9,12.1,15.6,23.8,23,34.9
					c7.4,11,14.4,21.5,20.9,31c13,19.2,24.1,35,31.9,46c7.8,11,12.4,17.3,12.4,17.3L445.8,830.9z"/>
			</g>
			<g>
				<g>
					<g>
						<g>
							
								<linearGradient id="SVGID_40_" gradientUnits="userSpaceOnUse" x1="719.1543" y1="2905.3081" x2="600.9476" y2="2618.7854" gradientTransform="matrix(-0.9092 0.4164 -0.4164 -0.9092 1819.2609 2351.2314)">
								<stop  offset="0" style="stop-color:#BECC91"/>
								<stop  offset="1" style="stop-color:#6BA47D"/>
							</linearGradient>
							<path fill="url(#SVGID_40_)" d="M9,24.5c0,0-33.1,17.7-48,22c-5.2,1.5-10.8,2.5-15.8,3.2c12.2,15,32,30.8,62.5,47
								c80.6,42.8,88.8,65.1,126.5,93.3c4.3,3.2,8.8,6.6,13.2,10l8.4-53.1c-29.4-32.2-66.6-67.1-111.6-97.9
								C31.7,40.4,19.9,32.1,8.6,24.3L9,24.5z"/>
						</g>
						<g>
							
								<linearGradient id="SVGID_41_" gradientUnits="userSpaceOnUse" x1="706.4846" y1="2910.5352" x2="588.2778" y2="2624.0122" gradientTransform="matrix(-0.9092 0.4164 -0.4164 -0.9092 1819.2609 2351.2314)">
								<stop  offset="0" style="stop-color:#BECC91"/>
								<stop  offset="1" style="stop-color:#6BA47D"/>
							</linearGradient>
							<path fill="url(#SVGID_41_)" d="M152.9,204.2c32,24.4,65,50.8,73.2,58.8c9.9,9.6,11.7-5.4,11.7-5.4s-27.5-50.9-82-110.8
								L152.9,204.2z"/>
						</g>
						<g>
							
								<linearGradient id="SVGID_42_" gradientUnits="userSpaceOnUse" x1="723.8738" y1="2903.3611" x2="605.667" y2="2616.8384" gradientTransform="matrix(-0.9092 0.4164 -0.4164 -0.9092 1819.2609 2351.2314)">
								<stop  offset="0" style="stop-color:#BECC91"/>
								<stop  offset="1" style="stop-color:#6BA47D"/>
							</linearGradient>
							<path fill="url(#SVGID_42_)" d="M-36.9,37.4c15.4-4.9,43-14.8,43-14.8l0.3,0.2C-12.4,9.6-29.3-2.5-44.4-13.4
								c-0.2,1-0.2,1.6-0.2,1.6c-11.9,5-26.3,4.7-27.1,12.2c-1.3,12.4,1.2,26.1,10.6,40.6C-53.4,40.7-44.2,39.7-36.9,37.4z"/>
						</g>
					</g>
				</g>
				
					<linearGradient id="SVGID_43_" gradientUnits="userSpaceOnUse" x1="713.8965" y1="3081.6958" x2="562.2836" y2="2696.239" gradientTransform="matrix(-0.9092 0.4164 -0.4164 -0.9092 1819.2609 2351.2314)">
					<stop  offset="0" style="stop-color:#6BA47D"/>
					<stop  offset="1" style="stop-color:#447862"/>
				</linearGradient>
				<path fill="url(#SVGID_43_)" d="M44.2,48.9c128.6,88.2,193.6,208.7,193.6,208.7c22.4,20.3,23.3-24.8,3.2-81
					C205.2,76.6,167.3,36.8,123.8,4.8c-4,6.4-10,14.2-19.1,22.2C82.1,46.7,51.8,54.2,51.8,54.2s22.4-11.9,38.1-24
					c8.4-6.5,18.9-19.7,26.8-30.5c-16-11.4-32.7-22.1-50.4-34.6C29.6-61-9.5-46.2-28.4-37.5c-8.7,4-15.3,19.9-16,24.1
					C-19.9,4.3,9.9,25.4,44.2,48.9z"/>
				<path fill="#FFFFFF" d="M-122.4-74c0,0,6,4.8,16.7,13c10.7,8.2,26.1,19.8,44.7,33.6c9.3,6.9,19.4,14.3,30.2,22
					C-20,2.4-8.6,10.5,3.2,18.8C15,27.2,27.3,35.8,39.7,44.4c1.6,1.1,3.1,2.2,4.7,3.3c1.6,1.1,3.1,2.3,4.7,3.4
					c3.1,2.3,6.2,4.5,9.3,6.8c3.1,2.3,6.2,4.5,9.3,6.8c3,2.4,6,4.8,9.1,7.2c3,2.4,6,4.8,9.1,7.3c1.5,1.2,3,2.4,4.5,3.6l4.3,3.8
					c2.9,2.5,5.8,5.1,8.7,7.6c1.4,1.3,2.9,2.5,4.3,3.8c1.4,1.3,2.9,2.5,4.2,3.8c5.5,5.2,11,10.4,16.4,15.6
					c5.3,5.3,10.4,10.6,15.4,15.8c9.9,10.5,19.4,20.9,27.9,31.1c2.1,2.5,4.3,5,6.3,7.5c2,2.5,4,5,6,7.4c2,2.4,3.9,4.8,5.8,7.2
					c1.8,2.4,3.6,4.8,5.4,7.1c1.7,2.3,3.5,4.6,5.1,6.8c1.7,2.2,3.2,4.4,4.8,6.6c3.1,4.3,6,8.3,8.6,12.3c5.4,7.7,9.8,14.6,13.4,20.3
					c3.6,5.7,6.3,10.3,8.1,13.4c1.8,3.1,2.7,4.8,2.7,4.8s-0.9-1.7-2.8-4.8c-1.8-3.1-4.6-7.7-8.2-13.3c-3.7-5.7-8.2-12.5-13.6-20.2
					c-2.6-3.9-5.6-7.9-8.7-12.2c-1.6-2.1-3.1-4.3-4.8-6.5c-1.7-2.2-3.4-4.4-5.2-6.7c-1.8-2.3-3.6-4.6-5.4-7
					c-1.9-2.3-3.8-4.7-5.8-7.1c-2-2.4-4-4.9-6-7.4c-2-2.5-4.2-4.9-6.4-7.4c-8.6-10.1-18.1-20.4-28.1-30.8
					c-5.1-5.1-10.2-10.4-15.5-15.6c-5.4-5.1-10.9-10.2-16.5-15.4c-1.4-1.3-2.8-2.5-4.3-3.8c-1.4-1.2-2.9-2.5-4.3-3.7
					c-2.9-2.5-5.8-5-8.7-7.5l-4.4-3.8c-1.5-1.2-3-2.4-4.5-3.6c-3-2.4-6-4.8-9.1-7.2c-3-2.4-6-4.8-9.1-7.1c-3.1-2.2-6.3-4.5-9.4-6.7
					c-3.1-2.2-6.2-4.5-9.4-6.7c-1.6-1.1-3.1-2.2-4.6-3.3c-1.6-1.1-3.1-2.2-4.7-3.2C25.9,37.8,13.6,29.3,1.7,21
					C-10.2,12.7-21.7,4.7-32.5-3c-10.8-7.7-21-15-30.4-21.8c-18.8-13.6-34.3-25.1-45.1-33.3c-10.8-8.1-16.9-12.9-16.9-12.9
					L-122.4-74z"/>
			</g>
			<g>
				<g>
					
						<linearGradient id="SVGID_44_" gradientUnits="userSpaceOnUse" x1="334.6974" y1="263.8376" x2="358.6974" y2="453.8376" gradientTransform="matrix(-0.9741 -0.2262 -0.2262 0.9741 881.0281 99.6677)">
						<stop  offset="0" style="stop-color:#BECC91"/>
						<stop  offset="1" style="stop-color:#6BA47D"/>
					</linearGradient>
					<path fill="url(#SVGID_44_)" d="M433.6,401.5c1.7-3.3,3.5-6.8,5.7-10.4c10-16.8,26.2-27.5,27.9-28.5c2.3,8.4,3.6,18.6,3.8,30.7
						c-12,4.1-19.8,13-25.5,21.3L433.6,401.5z"/>
					
						<linearGradient id="SVGID_45_" gradientUnits="userSpaceOnUse" x1="343.8847" y1="262.677" x2="367.8847" y2="452.677" gradientTransform="matrix(-0.9741 -0.2262 -0.2262 0.9741 881.0281 99.6677)">
						<stop  offset="0" style="stop-color:#BECC91"/>
						<stop  offset="1" style="stop-color:#6BA47D"/>
					</linearGradient>
					<path fill="url(#SVGID_45_)" d="M432,404.9L432,404.9l10.8,13.7c-4.5,7.2-7.6,13.1-10.8,13.9c-7.2,1.7-9.6,0.6-9.6,0.6
						S424.2,421.5,432,404.9z"/>
				</g>
				
					<linearGradient id="SVGID_46_" gradientUnits="userSpaceOnUse" x1="303.5832" y1="316.1725" x2="394.3899" y2="411.1703" gradientTransform="matrix(-0.9741 -0.2262 -0.2262 0.9741 881.0281 99.6677)">
					<stop  offset="0" style="stop-color:#6BA47D"/>
					<stop  offset="1" style="stop-color:#447862"/>
				</linearGradient>
				<path fill="url(#SVGID_46_)" d="M442.1,386.7l-20.9-0.1c1.8-5.7,4-10.9,6.4-14.7c12.1-19.3,24.7-27,24.7-27l4.7,1.3
					c4.6,2.4,7.9,8.3,10.1,16.3c-1.6,1.1-17.9,11.8-27.9,28.5c-14.2,23.7-16.9,42-16.9,42c-9.6,6.7-8.7-20.3-2.5-42.4L442.1,386.7z"
					/>
				<g>
					<g>
						
							<linearGradient id="SVGID_47_" gradientUnits="userSpaceOnUse" x1="202.7162" y1="573.7155" x2="184.7162" y2="279.7155" gradientTransform="matrix(-0.9741 -0.2262 -0.2262 0.9741 881.0281 99.6677)">
							<stop  offset="0" style="stop-color:#BECC91"/>
							<stop  offset="1" style="stop-color:#6BA47D"/>
						</linearGradient>
						<path fill="url(#SVGID_47_)" d="M563.5,517.1c6.3-7.3,12.3-14.4,17-20.1c0.2,7.4,0.1,14,0,19.7c-1.3,40.5,15.3,78.4,5.4,121.4
							c-10,43-31.9,55.5-48.4,31.5c-2.8-21.8-4.8-47.2-4.8-73.9c0-15.6,0.5-32.5,1.1-50C533.7,545.8,550,532.7,563.5,517.1z"/>
						
							<linearGradient id="SVGID_48_" gradientUnits="userSpaceOnUse" x1="294.4283" y1="568.1005" x2="276.4283" y2="274.1005" gradientTransform="matrix(-0.9741 -0.2262 -0.2262 0.9741 881.0281 99.6677)">
							<stop  offset="0" style="stop-color:#BECC91"/>
							<stop  offset="1" style="stop-color:#6BA47D"/>
						</linearGradient>
						<path fill="url(#SVGID_48_)" d="M534.7,354.8c24.7,17.6,36.7,58,42.1,96.2c-5.5,8.3-15.5,23.2-19.8,27.6
							c-6,6.1-20.8,24.4-20.8,24.4s16.7-15.2,27.5-27.6c5.4-6.2,10.4-12.3,14.1-17c1.1,9.1,1.8,17.9,2.3,26.2
							c-3.5,4.9-9.1,12.8-13.9,19.9c-7.5,11.1-31.4,37.2-31.4,37.2l-1,4.1c2.3-71,5.3-151-24.6-186.2
							c-11.2-13.2-33.7-22.5-54.4-14.7l-1-0.7C461.5,341.2,498.2,328.8,534.7,354.8z"/>
					</g>
				</g>
				<g>
					<path fill="#FFFFFF" d="M468.2,363.7c0,0-0.3,0.2-0.8,0.5c-0.5,0.3-1.3,0.8-2.2,1.5c-1.9,1.3-4.6,3.3-7.6,5.9
						c-1.5,1.3-3.1,2.7-4.8,4.3c-0.8,0.8-1.7,1.6-2.5,2.5c-0.8,0.9-1.7,1.7-2.5,2.7c-0.4,0.5-0.8,0.9-1.2,1.4
						c-0.4,0.5-0.8,1-1.2,1.5c-0.4,0.5-0.8,1-1.2,1.5c-0.4,0.5-0.8,1-1.2,1.6c-0.8,1-1.5,2.1-2.2,3.2c-0.7,1.1-1.4,2.2-2.1,3.4
						c-1.4,2.3-2.7,4.6-3.9,6.9c-0.6,1.2-1.2,2.3-1.8,3.5c-0.6,1.2-1.1,2.3-1.7,3.4c-1.1,2.3-2,4.5-2.9,6.6
						c-0.9,2.1-1.6,4.2-2.3,6.1c-1.3,3.8-2.3,7-2.8,9.3c-0.6,2.3-0.8,3.6-0.8,3.6s0.2-1.3,0.7-3.6c0.5-2.3,1.3-5.6,2.5-9.4
						c0.6-1.9,1.3-4,2.1-6.2c0.8-2.2,1.7-4.4,2.7-6.8c0.5-1.2,1-2.3,1.6-3.5c0.6-1.2,1.1-2.4,1.7-3.6c1.2-2.4,2.4-4.8,3.7-7.1
						c0.6-1.2,1.3-2.4,2-3.5c0.7-1.2,1.4-2.3,2.2-3.4c0.4-0.6,0.8-1.1,1.1-1.6c0.4-0.5,0.8-1.1,1.2-1.6c0.4-0.5,0.8-1,1.2-1.6
						c0.4-0.5,0.8-1,1.2-1.5c0.8-1,1.6-1.9,2.4-2.8c0.8-0.9,1.6-1.8,2.4-2.6c1.6-1.7,3.2-3.2,4.7-4.6c3-2.8,5.7-4.9,7.6-6.3
						c1-0.7,1.7-1.3,2.2-1.6c0.5-0.4,0.8-0.6,0.8-0.6L468.2,363.7z"/>
				</g>
				<g>
					<g>
						<g>
							
								<linearGradient id="SVGID_49_" gradientUnits="userSpaceOnUse" x1="303.2726" y1="697.2976" x2="257.2726" y2="327.2976" gradientTransform="matrix(-0.9741 -0.2262 -0.2262 0.9741 881.0281 99.6677)">
								<stop  offset="0" style="stop-color:#6BA47D"/>
								<stop  offset="1" style="stop-color:#447862"/>
							</linearGradient>
							<path fill="url(#SVGID_49_)" d="M500.7,440.8c15.5,4.3,33.9,9.9,33.9,9.9c3,47.1-1.5,98.6-2,138.4l-0.6-2
								c0,0-27.5-15.1-47.1-21.6c-12.2-4-25.6-11.1-34-15.9c3.7-36.8,12.1-77.1,16.2-105.6c0.4-2.7,0.7-5.3,1.1-8
								C476.6,436.6,490.5,437.9,500.7,440.8z"/>
						</g>
						<g>
							
								<linearGradient id="SVGID_50_" gradientUnits="userSpaceOnUse" x1="274.5107" y1="700.8734" x2="228.5107" y2="330.8734" gradientTransform="matrix(-0.9741 -0.2262 -0.2262 0.9741 881.0281 99.6677)">
								<stop  offset="0" style="stop-color:#6BA47D"/>
								<stop  offset="1" style="stop-color:#447862"/>
							</linearGradient>
							<path fill="url(#SVGID_50_)" d="M479.8,572.3c19,6.1,47.9,16.9,52.8,18.8c0,1.6,0,3.2,0,4.7c0,26.8,2.1,52.1,4.8,73.9
								c0,0-10.2,10.4-22.8,12c-12.6,1.6-51.7-26.8-62.3-68.9c-3.6-14.2-3.8-32.8-2.3-52.9C457.2,563.6,468,568.6,479.8,572.3z"/>
						</g>
						<g>
							
								<linearGradient id="SVGID_51_" gradientUnits="userSpaceOnUse" x1="349.015" y1="691.6107" x2="303.015" y2="321.6107" gradientTransform="matrix(-0.9741 -0.2262 -0.2262 0.9741 881.0281 99.6677)">
								<stop  offset="0" style="stop-color:#6BA47D"/>
								<stop  offset="1" style="stop-color:#447862"/>
							</linearGradient>
							<path fill="url(#SVGID_51_)" d="M492.5,339c28.9,22.3,39.2,64.8,42.2,111.7c0,0-12.8-6.8-35.4-13.5
								c-14.4-4.3-24.7-6.4-30.3-7.4c4.7-42,2-80.5-16.7-84.9C465.3,336,492.5,339,492.5,339z"/>
						</g>
					</g>
				</g>
				<path fill="#FFFFFF" d="M490.4,338.8c0,0,1.8,1.6,4,3.4c0.5,0.5,1.2,0.9,1.8,1.5c0.6,0.6,1.3,1.3,2,2c0.7,0.7,1.6,1.5,2.4,2.4
					c0.8,0.9,1.6,1.9,2.5,3c0.4,0.5,0.9,1.1,1.3,1.6c0.4,0.6,0.8,1.2,1.3,1.8c0.9,1.2,1.8,2.5,2.7,3.9c0.9,1.4,1.7,2.9,2.7,4.5
					c0.2,0.4,0.5,0.8,0.7,1.2c0.2,0.4,0.4,0.8,0.6,1.2c0.4,0.8,0.9,1.7,1.3,2.6c3.5,7,6.8,15.3,9.5,24.7c2.7,9.4,5,20,6.6,31.3
					c1.7,11.3,2.8,23.4,3.4,36c0.7,12.6,0.8,25.6,0.6,38.9c-0.2,13.3-0.8,26.8-1.5,40.3c-0.8,13.6-1.2,27.2-1.3,40.5
					c-0.1,13.4,0.1,26.5,0.6,39.2c0.5,12.7,1.2,24.9,2.1,36.5c0.2,2.9,0.5,5.7,0.7,8.6c0.3,2.8,0.5,5.5,0.8,8.3
					c0.6,5.4,1.2,10.7,1.8,15.7c1.3,10,2.7,19.1,4,27.2c1.3,8.1,2.5,15.1,3.5,20.9c2,11.5,3.3,18.1,3.3,18.1l4.9-1.4
					c0,0-1.3-6.5-3.3-18c-1-5.7-2.2-12.7-3.5-20.8c-1.3-8-2.7-17.1-4.1-27c-0.7-5-1.3-10.1-1.9-15.5c-0.3-2.7-0.5-5.4-0.8-8.2
					c-0.2-2.8-0.5-5.6-0.7-8.5c-1-11.5-1.7-23.6-2.3-36.2c-0.5-12.6-0.8-25.6-0.8-38.9c0-13.3,0.4-26.8,1.1-40.3
					c0.6-13.5,1.2-27.1,1.3-40.5c0.1-13.4-0.1-26.5-0.8-39.2c-0.7-12.7-1.9-24.9-3.7-36.3c-1.7-11.4-4-22.1-6.9-31.8
					c-2.8-9.6-6.2-18.1-9.9-25.3c-0.5-0.9-0.9-1.8-1.4-2.6c-0.2-0.4-0.4-0.9-0.7-1.3c-0.2-0.4-0.5-0.8-0.7-1.2
					c-1-1.6-1.9-3.1-2.8-4.6c-1-1.4-1.9-2.7-2.8-4c-0.5-0.6-0.9-1.3-1.3-1.9c-0.5-0.6-0.9-1.1-1.4-1.7c-0.9-1.1-1.8-2.1-2.6-3.1
					c-0.8-0.9-1.7-1.7-2.5-2.5c-0.8-0.8-1.5-1.5-2.1-2.1c-0.7-0.6-1.3-1.1-1.9-1.6C496.3,339.4,493.2,338.9,490.4,338.8z"/>
			</g>
			<g>
				<g>
					
						<linearGradient id="SVGID_52_" gradientUnits="userSpaceOnUse" x1="-696.8488" y1="1493.9686" x2="-672.8488" y2="1683.9686" gradientTransform="matrix(0.5134 0.8582 0.8582 -0.5134 -791.9012 1496.7421)">
						<stop  offset="0" style="stop-color:#BECC91"/>
						<stop  offset="1" style="stop-color:#6BA47D"/>
					</linearGradient>
					<path fill="url(#SVGID_52_)" d="M262,92.5c-3.5,1.1-7.4,2.2-11.5,3.1c-19,4.4-38,0.2-39.9-0.2c4.4-7.5,10.8-15.5,19.4-24
						c11.2,5.8,23.1,5.2,33,3.6L262,92.5z"/>
					
						<linearGradient id="SVGID_53_" gradientUnits="userSpaceOnUse" x1="-687.6615" y1="1492.8081" x2="-663.6615" y2="1682.8081" gradientTransform="matrix(0.5134 0.8582 0.8582 -0.5134 -791.9012 1496.7421)">
						<stop  offset="0" style="stop-color:#BECC91"/>
						<stop  offset="1" style="stop-color:#6BA47D"/>
					</linearGradient>
					<path fill="url(#SVGID_53_)" d="M265.6,91.3L265.6,91.3L268,74c8.3-1.7,14.7-3.6,17.5-1.8c6.3,4,7.1,6.5,7.1,6.5
						S283,85.4,265.6,91.3z"/>
				</g>
				
					<linearGradient id="SVGID_54_" gradientUnits="userSpaceOnUse" x1="-727.963" y1="1546.3036" x2="-637.1563" y2="1641.3014" gradientTransform="matrix(0.5134 0.8582 0.8582 -0.5134 -791.9012 1496.7421)">
					<stop  offset="0" style="stop-color:#6BA47D"/>
					<stop  offset="1" style="stop-color:#447862"/>
				</linearGradient>
				<path fill="url(#SVGID_54_)" d="M245.6,96.7l14.4,15.1c-5.4,2.6-10.6,4.7-15.1,5.6c-22.3,4.7-36.6,0.9-36.6,0.9l-2.4-4.3
					c-1.4-5,0.5-11.4,4.7-18.6c1.9,0.4,20.9,4.7,39.9,0.2c26.9-6.3,41.9-17,41.9-17c11.5,2.2-8.6,20.4-28.8,31.2L245.6,96.7z"/>
				<g>
					<g>
						
							<linearGradient id="SVGID_55_" gradientUnits="userSpaceOnUse" x1="-737.1179" y1="1798.2316" x2="-755.1179" y2="1504.2316" gradientTransform="matrix(0.5134 0.8582 0.8582 -0.5134 -791.9012 1496.7421)">
							<stop  offset="0" style="stop-color:#BECC91"/>
							<stop  offset="1" style="stop-color:#6BA47D"/>
						</linearGradient>
						<path fill="url(#SVGID_55_)" d="M158.3,52.1c-4.4-30,16.3-66.7,40.1-97.1c9.8-1.8,27.5-4.9,33.6-4.9c8.6,0.1,32-1.9,32-1.9
							s-22.5-1.5-39-0.6c-8.2,0.4-16.1,1.1-22,1.6c5.8-7.1,11.6-13.7,17.3-19.8c5.9-0.9,15.6-2.3,23.9-3.8
							c13.2-2.3,48.6-3.2,48.6-3.2l3.7-2.2c-52.7,47.6-112.4,101-117,146.9c-1.7,17.2,7.2,39.8,27.2,49.3l0.2,1.2
							C199.3,114.3,164.9,96.5,158.3,52.1z"/>
					</g>
				</g>
				<g>
					<path fill="#FFFFFF" d="M210.9,93.9c0,0,0.3,0.1,0.9,0.2c0.6,0.1,1.5,0.3,2.6,0.6c2.3,0.4,5.5,1,9.5,1.4c2,0.2,4.1,0.4,6.4,0.4
						c1.1,0,2.3,0.1,3.5,0.1c1.2,0,2.4,0,3.7-0.1c0.6,0,1.2-0.1,1.9-0.1c0.6-0.1,1.3-0.1,1.9-0.2c0.6-0.1,1.3-0.1,1.9-0.2
						c0.6-0.1,1.3-0.2,1.9-0.3c1.3-0.1,2.6-0.4,3.9-0.6c1.3-0.2,2.6-0.5,3.9-0.8c2.6-0.6,5.2-1.3,7.7-2c1.3-0.4,2.5-0.7,3.7-1.1
						c1.2-0.4,2.4-0.8,3.6-1.2c2.4-0.8,4.6-1.7,6.8-2.5c2.1-0.9,4.1-1.7,6-2.5c3.7-1.7,6.6-3.2,8.7-4.4c2-1.2,3.1-1.9,3.1-1.9
						s-1.1,0.8-3.1,2c-2,1.2-4.9,2.9-8.5,4.7c-1.8,0.9-3.8,1.8-5.9,2.8c-2.1,0.9-4.4,1.8-6.7,2.8c-1.2,0.4-2.4,0.9-3.6,1.3
						c-1.2,0.4-2.5,0.8-3.7,1.3c-2.5,0.8-5.1,1.6-7.7,2.3c-1.3,0.3-2.6,0.7-3.9,1c-1.3,0.3-2.6,0.6-4,0.8c-0.7,0.1-1.3,0.2-2,0.3
						c-0.7,0.1-1.3,0.2-2,0.2c-0.7,0.1-1.3,0.2-1.9,0.2c-0.6,0.1-1.3,0.1-1.9,0.2c-1.3,0.1-2.5,0.2-3.7,0.2
						c-1.2,0.1-2.4,0.1-3.6,0.1c-2.3,0-4.5-0.1-6.6-0.2c-4.1-0.3-7.4-0.7-9.8-1.1c-1.2-0.2-2.1-0.4-2.7-0.5c-0.6-0.1-1-0.2-1-0.2
						L210.9,93.9z"/>
				</g>
				<g>
					<g>
						<g>
							
								<linearGradient id="SVGID_56_" gradientUnits="userSpaceOnUse" x1="-728.2736" y1="1927.4287" x2="-774.2736" y2="1557.4287" gradientTransform="matrix(0.5134 0.8582 0.8582 -0.5134 -791.9012 1496.7421)">
								<stop  offset="0" style="stop-color:#6BA47D"/>
								<stop  offset="1" style="stop-color:#447862"/>
							</linearGradient>
							<path fill="url(#SVGID_56_)" d="M243.7,16.9c-7.6-14.1-16.4-31.2-16.4-31.2c31.8-34.8,72-67.4,101-94.6l-1,1.8
								c0,0,8.2,30.3,17.2,48.9c5.6,11.5,9.8,26.1,12.2,35.5c-29,22.9-63.9,44.8-87.3,61.6c-2.2,1.6-4.3,3.2-6.5,4.8
								C257.5,37.2,248.8,26.2,243.7,16.9z"/>
						</g>
						<g>
							
								<linearGradient id="SVGID_57_" gradientUnits="userSpaceOnUse" x1="-682.5312" y1="1921.7418" x2="-728.5312" y2="1551.7418" gradientTransform="matrix(0.5134 0.8582 0.8582 -0.5134 -791.9012 1496.7421)">
								<stop  offset="0" style="stop-color:#6BA47D"/>
								<stop  offset="1" style="stop-color:#447862"/>
							</linearGradient>
							<path fill="url(#SVGID_57_)" d="M176.2,93.6c-4-36.3,19.4-73.2,51.1-107.9c0,0,4,14,14.8,34.8c6.9,13.3,12.5,22.2,15.7,26.9
								c-33.5,25.8-59.4,54.4-49.5,70.9C192.9,115.1,176.2,93.6,176.2,93.6z"/>
						</g>
					</g>
				</g>
				<path fill="#FFFFFF" d="M177.5,95.2c0,0-0.1-2.4-0.3-5.2c0-0.7-0.2-1.5-0.1-2.4c0-0.9,0-1.9,0.1-2.9c0-1,0-2.2,0.1-3.4
					c0.1-1.2,0.3-2.5,0.4-3.8c0.1-0.7,0.1-1.4,0.2-2.1c0.1-0.7,0.3-1.4,0.4-2.2c0.3-1.5,0.6-3,0.9-4.7c0.4-1.6,0.9-3.3,1.4-5
					c0.1-0.4,0.2-0.9,0.4-1.3c0.1-0.4,0.3-0.9,0.4-1.3c0.3-0.9,0.6-1.8,0.9-2.7c2.6-7.3,6.3-15.5,11.2-24
					c4.9-8.5,10.9-17.4,17.9-26.5c7-9.1,14.9-18.3,23.5-27.4c8.6-9.2,17.9-18.4,27.6-27.5c9.7-9.1,19.8-18,30-26.9
					c10.3-8.9,20.4-18,30.1-27.2c9.7-9.2,19-18.5,27.8-27.6c8.8-9.1,17.1-18.2,24.8-26.8c1.9-2.2,3.8-4.3,5.7-6.5
					c1.8-2.1,3.6-4.2,5.4-6.3c3.5-4.2,6.9-8.3,10-12.2c6.3-7.9,11.9-15.2,16.8-21.7c4.9-6.5,9.2-12.2,12.6-17
					c6.9-9.5,10.8-14.9,10.8-14.9l-4.4-2.6c0,0-3.8,5.4-10.7,14.9c-3.4,4.7-7.6,10.4-12.5,17c-4.9,6.5-10.4,13.8-16.6,21.7
					c-3.1,3.9-6.4,8-9.9,12.1c-1.7,2.1-3.5,4.2-5.3,6.3c-1.8,2.1-3.7,4.3-5.6,6.4c-7.6,8.7-15.8,17.7-24.5,26.8
					c-8.7,9.1-17.9,18.4-27.5,27.6c-9.6,9.2-19.6,18.3-29.8,27.2c-10.2,8.9-20.3,18-30,27.2c-9.7,9.2-19,18.5-27.6,27.8
					c-8.6,9.3-16.6,18.6-23.6,27.9c-7,9.2-13.1,18.3-18.1,27c-5,8.7-8.7,17.1-11.3,24.6c-0.3,0.9-0.6,1.9-0.9,2.8
					c-0.2,0.5-0.3,0.9-0.5,1.4c-0.1,0.5-0.2,0.9-0.4,1.4c-0.5,1.8-0.9,3.5-1.4,5.2c-0.3,1.7-0.6,3.3-0.9,4.8
					c-0.1,0.8-0.3,1.5-0.4,2.3c-0.1,0.7-0.2,1.5-0.2,2.2c-0.1,1.4-0.3,2.7-0.4,4c-0.1,1.3,0,2.4-0.1,3.5c0,1.1,0,2.1,0,3
					c0,0.9,0.1,1.7,0.2,2.5C173.9,90.5,175.7,93,177.5,95.2z"/>
			</g>
			<g>
				<g>
					
						<linearGradient id="SVGID_58_" gradientUnits="userSpaceOnUse" x1="-30.6687" y1="2221.7781" x2="-6.6687" y2="2411.7781" gradientTransform="matrix(-0.9352 0.3541 -0.3541 -0.9352 1298.1852 2239.1128)">
						<stop  offset="0" style="stop-color:#BECC91"/>
						<stop  offset="1" style="stop-color:#6BA47D"/>
					</linearGradient>
					<path fill="url(#SVGID_58_)" d="M462.9,39.2c2.1,3.1,4.4,6.3,7,9.6c12.1,15.3,29.7,23.8,31.4,24.6c1.2-8.6,1.1-18.9-0.3-30.9
						c-12.4-2.4-21.3-10.2-28.1-17.7L462.9,39.2z"/>
					
						<linearGradient id="SVGID_59_" gradientUnits="userSpaceOnUse" x1="-21.4814" y1="2220.6174" x2="2.5186" y2="2410.6174" gradientTransform="matrix(-0.9352 0.3541 -0.3541 -0.9352 1298.1852 2239.1128)">
						<stop  offset="0" style="stop-color:#BECC91"/>
						<stop  offset="1" style="stop-color:#6BA47D"/>
					</linearGradient>
					<path fill="url(#SVGID_59_)" d="M460.8,36.1L460.8,36.1l8.9-15c-5.5-6.5-9.3-12-12.5-12.3c-7.4-0.7-9.6,0.7-9.6,0.7
						S450.8,20.6,460.8,36.1z"/>
				</g>
				
					<linearGradient id="SVGID_60_" gradientUnits="userSpaceOnUse" x1="-61.7829" y1="2274.113" x2="29.0238" y2="2369.1108" gradientTransform="matrix(-0.9352 0.3541 -0.3541 -0.9352 1298.1852 2239.1128)">
					<stop  offset="0" style="stop-color:#6BA47D"/>
					<stop  offset="1" style="stop-color:#447862"/>
				</linearGradient>
				<path fill="url(#SVGID_60_)" d="M473.2,52.7l-20.7,2.9c2.6,5.4,5.4,10.2,8.4,13.8C475.4,86.9,489,92.8,489,92.8l4.5-1.9
					c4.2-3,6.7-9.2,7.8-17.5c-1.8-0.8-19.3-9.3-31.4-24.6c-17.2-21.6-22.3-39.4-22.3-39.4c-10.4-5.4-5.9,21.3,3.2,42.3L473.2,52.7z"
					/>
				<g>
					<g>
						
							<linearGradient id="SVGID_61_" gradientUnits="userSpaceOnUse" x1="-70.9378" y1="2526.041" x2="-88.9378" y2="2232.041" gradientTransform="matrix(-0.9352 0.3541 -0.3541 -0.9352 1298.1852 2239.1128)">
							<stop  offset="0" style="stop-color:#BECC91"/>
							<stop  offset="1" style="stop-color:#6BA47D"/>
						</linearGradient>
						<path fill="url(#SVGID_61_)" d="M569.2,72c22.1-20.8,28.6-62.4,28.8-101c-6.5-7.5-18.5-20.9-23.3-24.7
							c-6.8-5.3-23.9-21.4-23.9-21.4s18.6,12.8,31,23.7c6.1,5.4,11.9,10.8,16.3,15c-0.1-9.1-0.6-18-1.2-26.3
							c-4.1-4.4-10.8-11.5-16.4-17.8c-8.9-10-36.1-32.7-36.1-32.7l-1.5-4c11.8,70,25.4,148.9,0.5,187.8
							c-9.3,14.5-30.4,26.8-51.9,21.8l-0.9,0.8C498.5,95.2,536.6,102.7,569.2,72z"/>
					</g>
				</g>
				<g>
					<path fill="#FFFFFF" d="M500.8,74.8c0,0-0.3-0.2-0.9-0.4c-0.6-0.3-1.4-0.7-2.4-1.3c-2.1-1.2-5-2.9-8.3-5.2
						c-1.7-1.2-3.5-2.5-5.3-3.9c-0.9-0.7-1.9-1.5-2.8-2.3c-0.9-0.8-1.9-1.6-2.8-2.5c-0.5-0.4-0.9-0.9-1.4-1.3
						c-0.5-0.5-0.9-0.9-1.4-1.4c-0.5-0.5-0.9-0.9-1.4-1.4c-0.4-0.5-0.9-1-1.3-1.5c-0.9-1-1.8-2-2.6-3.1c-0.9-1-1.7-2.1-2.5-3.2
						c-1.6-2.1-3.1-4.4-4.6-6.6c-0.7-1.1-1.4-2.2-2.2-3.3c-0.7-1.1-1.3-2.2-2-3.3c-1.3-2.2-2.5-4.3-3.6-6.3c-1.1-2-2.1-4-2.9-5.8
						c-1.7-3.7-3-6.8-3.8-9c-0.8-2.2-1.2-3.5-1.2-3.5s0.4,1.3,1.3,3.5c0.9,2.2,2.2,5.2,4.1,8.8c0.9,1.8,2,3.7,3.1,5.7
						c1.1,2,2.4,4.1,3.8,6.2c0.7,1,1.4,2.1,2.1,3.2c0.7,1.1,1.5,2.1,2.2,3.2c1.6,2.1,3.1,4.3,4.8,6.3c0.8,1.1,1.7,2.1,2.5,3.1
						c0.9,1,1.7,2,2.7,2.9c0.5,0.5,0.9,0.9,1.4,1.4c0.5,0.4,0.9,0.9,1.4,1.3c0.5,0.4,0.9,0.9,1.4,1.3c0.5,0.4,1,0.8,1.4,1.2
						c0.9,0.8,1.9,1.6,2.8,2.3c0.9,0.8,1.9,1.5,2.8,2.1c1.8,1.4,3.6,2.6,5.3,3.6c3.3,2.2,6.2,3.8,8.3,4.8c1,0.5,1.8,0.9,2.4,1.2
						c0.6,0.3,0.8,0.4,0.8,0.4L500.8,74.8z"/>
				</g>
				<g>
					<g>
						<g>
							
								<linearGradient id="SVGID_62_" gradientUnits="userSpaceOnUse" x1="-62.0935" y1="2655.238" x2="-108.0935" y2="2285.238" gradientTransform="matrix(-0.9352 0.3541 -0.3541 -0.9352 1298.1852 2239.1128)">
								<stop  offset="0" style="stop-color:#6BA47D"/>
								<stop  offset="1" style="stop-color:#447862"/>
							</linearGradient>
							<path fill="url(#SVGID_62_)" d="M524.1-8.7C538.9-15,556.4-23,556.4-23c-3.3-47.1-14.6-97.5-20.4-136.9l-0.3,2
								c0,0-25.2,18.7-43.8,27.7c-11.5,5.6-23.9,14.4-31.6,20.3c8.5,35.9,22.2,74.8,30.2,102.5c0.7,2.6,1.5,5.2,2.1,7.8
								C500.8-1.3,514.4-4.5,524.1-8.7z"/>
						</g>
						<g>
							
								<linearGradient id="SVGID_63_" gradientUnits="userSpaceOnUse" x1="-16.3511" y1="2649.5513" x2="-62.3511" y2="2279.5513" gradientTransform="matrix(-0.9352 0.3541 -0.3541 -0.9352 1298.1852 2239.1128)">
								<stop  offset="0" style="stop-color:#6BA47D"/>
								<stop  offset="1" style="stop-color:#447862"/>
							</linearGradient>
							<path fill="url(#SVGID_63_)" d="M529.5,93.3c25.7-25.9,30.2-69.5,26.9-116.3c0,0-11.8,8.5-33.2,18.1
								c-13.7,6.2-23.6,9.6-29,11.4c10.2,41,12.8,79.5-5.2,86.3C503,99.9,529.5,93.3,529.5,93.3z"/>
						</g>
					</g>
				</g>
				<path fill="#FFFFFF" d="M527.4,93.8c0,0,1.5-1.8,3.5-3.9c0.5-0.5,1.1-1.1,1.6-1.8c0.5-0.7,1.1-1.5,1.8-2.3
					c0.6-0.8,1.3-1.7,2-2.7c0.6-1,1.3-2.1,2-3.3c0.4-0.6,0.7-1.2,1.1-1.8c0.4-0.6,0.7-1.3,1-2c0.7-1.3,1.4-2.8,2.2-4.2
					c0.7-1.5,1.3-3.1,2.1-4.8c0.2-0.4,0.4-0.8,0.5-1.3c0.2-0.4,0.3-0.9,0.5-1.3c0.3-0.9,0.6-1.8,1-2.7c2.5-7.4,4.7-16,6.1-25.8
					c1.5-9.7,2.2-20.4,2.4-31.9c0.1-11.4-0.4-23.6-1.4-36.1c-1-12.5-2.6-25.5-4.6-38.6c-1.9-13.1-4.3-26.4-6.8-39.8
					c-2.6-13.3-4.8-26.8-6.7-40c-1.9-13.2-3.4-26.3-4.6-38.9c-1.2-12.6-2.1-24.9-2.8-36.4c-0.1-2.9-0.3-5.8-0.4-8.6
					c-0.1-2.8-0.3-5.5-0.3-8.3c-0.2-5.5-0.3-10.7-0.3-15.8c0-10.1,0.1-19.3,0.3-27.5c0.2-8.2,0.4-15.3,0.6-21.1
					c0.4-11.7,0.8-18.4,0.8-18.4l5,0.7c0,0-0.4,6.6-0.9,18.3c-0.2,5.8-0.5,12.9-0.7,21c-0.2,8.1-0.4,17.3-0.4,27.3
					c0,5,0,10.2,0.2,15.6c0.1,2.7,0.2,5.5,0.3,8.3c0.1,2.8,0.3,5.6,0.4,8.5c0.6,11.5,1.4,23.7,2.6,36.2c1.1,12.6,2.6,25.5,4.4,38.7
					c1.8,13.2,4,26.5,6.5,39.8c2.4,13.3,4.8,26.7,6.7,40c1.9,13.2,3.5,26.3,4.4,38.9c1,12.7,1.4,24.9,1.2,36.5
					c-0.2,11.6-1.1,22.5-2.6,32.4c-1.5,9.9-3.7,18.8-6.4,26.4c-0.3,0.9-0.7,1.9-1,2.8c-0.2,0.5-0.3,0.9-0.5,1.4
					c-0.2,0.4-0.4,0.9-0.6,1.3c-0.7,1.7-1.5,3.4-2.1,4.9c-0.8,1.5-1.6,3-2.3,4.4c-0.4,0.7-0.7,1.4-1.1,2c-0.4,0.6-0.8,1.2-1.2,1.8
					c-0.8,1.2-1.5,2.3-2.2,3.4c-0.7,1-1.5,1.9-2.1,2.8c-0.7,0.9-1.3,1.7-1.8,2.4c-0.6,0.7-1.2,1.3-1.7,1.8
					C533.2,92.3,530.2,93.3,527.4,93.8z"/>
			</g>
			<g>
				<g>
					<g>
						<g>
							
								<linearGradient id="SVGID_64_" gradientUnits="userSpaceOnUse" x1="-1328.3041" y1="1177.182" x2="-1389.9772" y2="886.8046" gradientTransform="matrix(-3.245903e-002 0.9995 -0.9995 -3.245903e-002 927.6045 1742.0914)">
								<stop  offset="0" style="stop-color:#BECC91"/>
								<stop  offset="1" style="stop-color:#6BA47D"/>
							</linearGradient>
							<path fill="url(#SVGID_64_)" d="M89.3,339.6c17.8-0.9,30.9-0.3,30.9-0.3s6.8-13.3,5.8-29.2c0,0-28.5-2.9-62.4-3.3L89.3,339.6
								z"/>
						</g>
						<g>
							
								<linearGradient id="SVGID_65_" gradientUnits="userSpaceOnUse" x1="-1313.3468" y1="1174.0052" x2="-1375.0199" y2="883.6278" gradientTransform="matrix(-3.245903e-002 0.9995 -0.9995 -3.245903e-002 927.6045 1742.0914)">
								<stop  offset="0" style="stop-color:#BECC91"/>
								<stop  offset="1" style="stop-color:#6BA47D"/>
							</linearGradient>
							<path fill="url(#SVGID_65_)" d="M-91.8,414.7c9-2.8,19.6-8.2,30.9-14.7c-7.5-3.2-15.8-6.5-22.4-8.8
								c-16.6-5.7-53.6-30.7-53.6-30.7l8.5-4.2c0,0,17.7,8.3,36.7,16.6c10.3,4.5,27.8,13.4,41.6,20.6c26.4-16,55.6-35.8,79.2-44
								c16.2-5.6,35.6-8.3,52.3-9.5L60,306.8c-11.2-0.1-22.9,0.1-34.3,0.8c-47.2,2.8-147,41.5-189.7,66.9c0,0-14,21.5,2.8,28.9
								C-150.7,408-123.9,424.7-91.8,414.7z"/>
						</g>
					</g>
				</g>
				
					<linearGradient id="SVGID_66_" gradientUnits="userSpaceOnUse" x1="-1394.1732" y1="1018.0637" x2="-1380.0398" y2="754.6682" gradientTransform="matrix(-3.245903e-002 0.9995 -0.9995 -3.245903e-002 927.6045 1742.0914)">
					<stop  offset="0" style="stop-color:#6BA47D"/>
					<stop  offset="1" style="stop-color:#447862"/>
				</linearGradient>
				<path fill="url(#SVGID_66_)" d="M-164.1,374.4c42.7-25.4,142.5-64.1,189.7-66.9c47.2-2.8,100.2,2.6,100.2,2.6
					c-0.8-11.9-6-25.2-21.8-35.5c-17.3-11.3-43.6-18.3-71.6-21.6c-5.4,9.3-13.2,22.2-20.2,30.9C0.3,299-9.9,313.6-9.9,313.6
					s10.4-22.4,18.5-36.2c4.4-7.5,11.6-17.5,17.2-25c-44.9-4.2-92.4,1.1-112.2,14.2c-33.2,22-78.9,20.1-89.9,64
					C-188.4,378.7-164.1,374.4-164.1,374.4z"/>
				
					<linearGradient id="SVGID_67_" gradientUnits="userSpaceOnUse" x1="-1411.2954" y1="821.3262" x2="-1262.2521" y2="854.7324" gradientTransform="matrix(-3.245903e-002 0.9995 -0.9995 -3.245903e-002 927.6045 1742.0914)">
					<stop  offset="0" style="stop-color:#BECC91"/>
					<stop  offset="1" style="stop-color:#6BA47D"/>
				</linearGradient>
				<path fill="url(#SVGID_67_)" d="M110.4,424.6c17.5-10.8,43.5-20,40-73.4c-1-15.4-5.5-28.5-11.6-39.4
					c9.5,84.4-30.4,106.1-30.4,106.1S101.4,430.2,110.4,424.6z"/>
				<path fill="#FFFFFF" d="M-239.4,404.2c0,0,0.4-0.1,1-0.2c0.7-0.2,1.7-0.4,3.1-0.7c2.7-0.7,6.6-1.8,11.6-3.4
					c5-1.6,10.9-3.7,17.7-6.5c6.7-2.7,14.2-6.1,22.2-10.1c2-1,4-2,6.1-3.2c2-1.1,4.2-2.2,6.3-3.4c2.1-1.2,4.2-2.4,6.4-3.7
					c2.2-1.3,4.4-2.5,6.7-3.8c9.1-5,18.9-9.8,29.2-14.5c20.5-9.4,42.9-18.4,65.6-26.3c11.4-4,22.8-7.7,34.2-11
					c11.4-3.3,22.7-6.2,33.8-8.3c5.6-1,11.1-1.9,16.5-2.4c2.7-0.2,5.4-0.4,8.1-0.5c2.6-0.1,5.3-0.3,7.8-0.3
					c10.4-0.3,20.1-0.3,29.2-0.1c18,0.3,33,1.3,43.5,2c10.5,0.8,16.5,1.4,16.5,1.4l-0.2,1.9c0,0-6-0.6-16.4-1.3
					c-10.5-0.7-25.5-1.6-43.4-1.8c-9-0.1-18.7-0.1-29,0.3c-2.6,0.1-5.2,0.2-7.8,0.3c-2.7,0.1-5.3,0.3-8,0.5
					c-5.3,0.6-10.8,1.4-16.3,2.5c-11,2.1-22.2,5.1-33.6,8.4c-11.3,3.3-22.7,7.1-34,11.1c-22.6,8-44.8,17.1-65.2,26.5
					c-10.2,4.7-19.9,9.6-28.9,14.6c-2.2,1.2-4.4,2.5-6.6,3.8c-2.2,1.3-4.3,2.5-6.4,3.7c-2.1,1.2-4.2,2.3-6.3,3.5
					c-2.1,1.1-4.1,2.2-6.1,3.2c-8.1,4.1-15.6,7.6-22.4,10.4c-6.8,2.8-12.9,5-17.9,6.7c-5,1.7-9,2.8-11.8,3.5
					c-1.4,0.4-2.4,0.6-3.2,0.8c-0.7,0.2-1.1,0.2-1.1,0.2L-239.4,404.2z"/>
				<g>
					
						<linearGradient id="SVGID_68_" gradientUnits="userSpaceOnUse" x1="-1433.3512" y1="859.5548" x2="-1199.5074" y2="838.9971" gradientTransform="matrix(-3.245903e-002 0.9995 -0.9995 -3.245903e-002 927.6045 1742.0914)">
						<stop  offset="0" style="stop-color:#6BA47D"/>
						<stop  offset="1" style="stop-color:#447862"/>
					</linearGradient>
					<path fill="url(#SVGID_68_)" d="M134.6,378.8c4.9-15.9,7.5-37.6,4.2-66.9C121.6,281.3,91.8,268,91.8,268
						c13.3,26,16.4,62.8,16.3,87.9c0,6.8-1.4,14.4-3.3,21.9L134.6,378.8z"/>
					
						<linearGradient id="SVGID_69_" gradientUnits="userSpaceOnUse" x1="-1432.7472" y1="866.4257" x2="-1198.9034" y2="845.868" gradientTransform="matrix(-3.245903e-002 0.9995 -0.9995 -3.245903e-002 927.6045 1742.0914)">
						<stop  offset="0" style="stop-color:#6BA47D"/>
						<stop  offset="1" style="stop-color:#447862"/>
					</linearGradient>
					<path fill="url(#SVGID_69_)" d="M108.4,417.9c0,0,17-9.2,26.2-39.1l-31.2,4.3C96.2,408.7,85.7,431.3,108.4,417.9z"/>
				</g>
				<path fill="#FFFFFF" d="M113.3,414.2c3-2.6,6.9-6.7,10.7-12.2c3.8-5.6,7.6-12.6,10.4-20.6c1.4-4,2.6-8.2,3.6-12.6
					c1-4.3,1.7-8.8,2.2-13.3c1.1-9,1.4-18,1.3-26.5c-0.1-4.7-0.4-9.2-0.7-13.4c-1.2-2.4-2.5-4.7-3.9-7c0.8,6.1,1.6,13,1.9,20.4
					c0.4,8.4,0.3,17.3-0.6,26.2c-0.4,4.5-1,8.8-1.9,13.2c-0.8,4.3-1.9,8.5-3.2,12.5c-2.5,8-6,15.1-9.7,20.7
					c-3.6,5.6-7.4,9.8-10.3,12.5c-2.9,2.7-4.8,3.9-4.8,3.9S110.3,416.8,113.3,414.2z"/>
			</g>
		</g>
	</g>
</g>
</svg>
